<?xml version="1.0" encoding="UTF-8"?>
<svg width="104px" height="104px" viewBox="0 0 104 104" version="1.1" xmlns="http://www.w3.org/2000/svg" xmlns:xlink="http://www.w3.org/1999/xlink">
    <!-- Generator: sketchtool 52 (66869) - http://www.bohemiancoding.com/sketch -->
    <title>7A339C42-FF1D-4F9F-984B-38FE68631402</title>
    <desc>Created with sketchtool.</desc>
    <g id="Page-2" stroke="none" stroke-width="1" fill="none" fill-rule="evenodd">
        <g id="index-1440" transform="translate(-1188.000000, -3999.000000)">
            <g id="Group-13" transform="translate(62.000000, 3999.000000)">
                <rect id="Rectangle-7-Copy-4" x="1126" y="0" width="104" height="104"></rect>
                <g id="icons8-manager" transform="translate(1152.000000, 42.000000)" fill="#644733" fill-rule="nonzero">
                    <path d="M24.726563,0 C19.886719,0 15.535156,2.648438 12.378906,5.222656 C9.222656,7.800781 7.210938,10.386719 7.210938,10.386719 L6.308594,11.542969 L7.71875,11.957031 C7.71875,11.957031 8.265625,12.109375 8.921875,12.78125 C9.574219,13.449219 10.273438,14.589844 10.273438,16.75 C10.273438,19.550781 10.703125,21.8125 10.917969,22.769531 C10.359375,23.277344 10,23.996094 10,24.800781 C10,25.449219 10.195313,26.003906 10.355469,26.546875 C10.433594,26.820313 10.511719,27.074219 10.5625,27.265625 C10.613281,27.457031 10.625,27.644531 10.625,27.5 C10.625,28.890625 11.804688,30 13.1875,30 L13.246094,30 C13.6875,33.441406 15.4375,36.464844 18,38.515625 L18,41.542969 L14.957031,44.171875 C12.695313,45.160156 9.128906,46.75 6.03125,48.707031 C4.453125,49.703125 3,50.785156 1.898438,51.972656 C0.796875,53.160156 0,54.5 0,56 L0,62 L52,62 L52,56 C52,54.5 51.203125,53.160156 50.101563,51.972656 C49,50.785156 47.546875,49.703125 45.96875,48.707031 C42.871094,46.75 39.304688,45.160156 37.042969,44.171875 L34,41.542969 L34,38.519531 C36.5625,36.464844 38.308594,33.441406 38.753906,30 L38.8125,30 C40.195313,30 41.375,28.890625 41.375,27.5 C41.375,27.644531 41.386719,27.457031 41.4375,27.265625 C41.488281,27.074219 41.566406,26.820313 41.644531,26.546875 C41.804688,26.003906 42,25.449219 42,24.800781 C42,23.980469 41.628906,23.257813 41.058594,22.746094 C41.242188,21.691406 42,17.175781 42,14 C42,10.40625 40.65625,7.832031 38.84375,6.234375 C37.214844,4.804688 35.300781,4.230469 33.605469,4.109375 C33.332031,3.675781 32.847656,2.996094 31.84375,2.210938 C30.402344,1.089844 28.089844,0 24.726563,0 Z M24.726563,2 C27.664063,2 29.488281,2.910156 30.609375,3.789063 C31.734375,4.667969 32.105469,5.441406 32.105469,5.441406 L32.378906,6 L33,6 C34.332031,6 36.125,6.507813 37.519531,7.738281 C38.917969,8.96875 40,10.890625 40,14 C40,16.789063 39.335938,20.859375 39.140625,22 C39.136719,22 39.132813,22 39.125,22 C39.039063,22 39.054688,22.019531 39,22.027344 L39,19 C39,15.578125 37.601563,13.277344 36.195313,11.914063 C34.789063,10.550781 33.316406,10.050781 33.316406,10.050781 L32.746094,9.859375 L32.308594,10.277344 C32.308594,10.277344 31.679688,10.894531 30.160156,11.589844 C28.640625,12.285156 26.289063,13 23,13 C21.199219,13 18.828125,13.636719 16.769531,15.074219 C14.71875,16.507813 13.011719,18.851563 13.003906,22.03125 C12.949219,22.023438 12.960938,22 12.875,22 C12.851563,22 12.828125,22.007813 12.804688,22.007813 C12.601563,21.042969 12.273438,19.160156 12.273438,16.75 C12.273438,14.132813 11.335938,12.394531 10.355469,11.386719 C9.9375,10.957031 9.84375,11.03125 9.480469,10.816406 C10.171875,10.003906 11.457031,8.5625 13.644531,6.777344 C16.617188,4.351563 20.632813,2 24.726563,2 Z M33,12.15625 C33.242188,12.25 33.875,12.449219 34.804688,13.347656 C35.898438,14.410156 37,16.105469 37,19 L37,25.304688 L38.503906,24.421875 C38.761719,24.273438 39,24.140625 39.167969,24.054688 C39.1875,24.042969 39.195313,24.042969 39.214844,24.03125 C39.671875,24.078125 40,24.398438 40,24.796875 L40,24.800781 C40,24.875 39.878906,25.460938 39.726563,25.984375 C39.648438,26.242188 39.570313,26.503906 39.503906,26.742188 C39.441406,26.980469 39.375,27.148438 39.375,27.5 C39.375,27.765625 39.15625,28 38.8125,28 L37.019531,28 L36.972656,28.949219 C36.703125,34.101563 32.902344,38.300781 27.941406,39.1875 L27.65625,39.234375 L27.441406,39.433594 C27.050781,39.789063 26.558594,40 26,40 C25.441406,40 24.949219,39.785156 24.554688,39.429688 L24.34375,39.234375 L24.058594,39.1875 C19.097656,38.300781 15.296875,34.101563 15.027344,28.949219 L14.976563,28 L13.1875,28 C12.84375,28 12.625,27.765625 12.625,27.5 C12.625,27.148438 12.558594,26.980469 12.492188,26.742188 C12.425781,26.503906 12.347656,26.242188 12.269531,25.984375 C12.117188,25.460938 12,24.875 12,24.800781 C12,24.398438 12.328125,24.078125 12.785156,24.03125 C12.804688,24.042969 12.8125,24.042969 12.832031,24.054688 C13,24.140625 13.238281,24.273438 13.496094,24.421875 L15,25.304688 L15,22.050781 C15,19.558594 16.242188,17.882813 17.914063,16.714844 C19.585938,15.546875 21.710938,15 23,15 C26.582031,15 29.230469,14.214844 30.992188,13.410156 C32.300781,12.8125 32.644531,12.445313 33,12.15625 Z M20.5,24 C19.671875,24 19,24.671875 19,25.5 C19,26.328125 19.671875,27 20.5,27 C21.328125,27 22,26.328125 22,25.5 C22,24.671875 21.328125,24 20.5,24 Z M31.5,24 C30.671875,24 30,24.671875 30,25.5 C30,26.328125 30.671875,27 31.5,27 C32.328125,27 33,26.328125 33,25.5 C33,24.671875 32.328125,24 31.5,24 Z M20,39.828125 C21.070313,40.394531 22.226563,40.820313 23.453125,41.066406 C24.15625,41.621094 25.027344,42 26,42 C26.972656,42 27.835938,41.621094 28.539063,41.066406 C29.769531,40.824219 30.929688,40.394531 32,39.828125 L32,42.410156 C31.613281,42.9375 31.074219,43.625 30.425781,44.316406 C29.09375,45.734375 27.339844,47 26,47 C24.660156,47 22.90625,45.734375 21.574219,44.316406 C20.925781,43.625 20.386719,42.9375 20,42.410156 L20,39.828125 Z M18.503906,43.75 C18.921875,44.308594 19.457031,44.984375 20.113281,45.683594 C20.867188,46.488281 21.761719,47.320313 22.769531,47.953125 L19.011719,50.457031 L17.054688,45.003906 L18.503906,43.75 Z M33.496094,43.75 L35.328125,45.332031 L33.488281,50.457031 L29.492188,47.792969 C30.394531,47.179688 31.199219,46.417969 31.886719,45.683594 C32.542969,44.984375 33.078125,44.308594 33.496094,43.75 Z M15.355469,46.1875 L17.988281,53.542969 L24.011719,49.527344 L24.742188,51.355469 L24.078125,60 L2,60 L2,56 C2,55.238281 2.453125,54.316406 3.367188,53.332031 C4.28125,52.347656 5.609375,51.335938 7.09375,50.398438 C9.855469,48.65625 13.101563,47.175781 15.355469,46.1875 Z M37.078125,46.375 C39.304688,47.363281 42.3125,48.761719 44.90625,50.398438 C46.390625,51.335938 47.71875,52.347656 48.632813,53.332031 C49.546875,54.316406 50,55.238281 50,56 L50,60 L27.921875,60 L27.257813,51.355469 L28.09375,49.265625 L34.511719,53.542969 L37.078125,46.375 Z" id="Shape"></path>
                </g>
            </g>
        </g>
    </g>
</svg>