<?xml version="1.0" encoding="UTF-8"?>
<svg width="104px" height="104px" viewBox="0 0 104 104" version="1.1" xmlns="http://www.w3.org/2000/svg" xmlns:xlink="http://www.w3.org/1999/xlink">
    <!-- Generator: sketchtool 52 (66869) - http://www.bohemiancoding.com/sketch -->
    <title>9BF7842D-8B96-4FBF-B14C-21FA4191CF55</title>
    <desc>Created with sketchtool.</desc>
    <g id="Page-2" stroke="none" stroke-width="1" fill="none" fill-rule="evenodd">
        <g id="index-1440" transform="translate(-147.000000, -3999.000000)">
            <g id="Group-13" transform="translate(62.000000, 3999.000000)">
                <rect id="Rectangle-7" x="85" y="0" width="104" height="104"></rect>
                <g id="icons8-volunteering" transform="translate(103.000000, 37.000000)" fill="#644733" fill-rule="nonzero">
                    <path d="M32.5,0 C29.474423,0 27,2.4744232 27,5.5 L27,6.355469 C26.041389,5.544974 24.846363,5 23.5,5 C20.474423,5 18,7.474423 18,10.5 L18,39 L18,41.972656 L13.457031,37.314453 C10.413618,34.193267 5.368612,34.183435 2.3125,37.291016 L0.421875,39.212891 L8.445312,47.847656 C8.524102,48.027478 9.842155,51.062912 12.1875,54.759766 C14.579209,58.529701 17.911078,62.826455 22.003906,64.980469 C23.672294,66.236944 25.748714,67 28,67 L43,67 C49.615466,67 55,61.615466 55,55 L55,46 L55,39 L55,18 C55,15.250484 52.749516,13 50,13 C48.855016,13 47.845423,13.455322 47,14.109375 L47,9.5 C47,6.474423 44.525577,4 41.5,4 C40.142567,4 38.936471,4.550586 37.974609,5.373047 C37.902651,2.4089241 35.480661,0 32.5,0 Z M32.5,2 C34.444423,2 36,3.5555768 36,5.5 L36,9.5 L38,9.5 C38,7.555577 39.555577,6 41.5,6 C43.444423,6 45,7.555577 45,9.5 L45,18 L47,18 C47,16.331516 48.331516,15 50,15 C51.668484,15 53,16.331516 53,18 L53,39 L53,46 L53,55 C53,60.534534 48.534534,65 43,65 L28,65 C26.181833,65 24.519283,64.39009 23.173828,63.367188 L23.105469,63.314453 L23.027344,63.273438 C19.496962,61.456036 16.202533,57.353199 13.876953,53.6875 C11.551373,50.021801 10.169922,46.847656 10.169922,46.847656 L10.101562,46.691406 L3.1894531,39.251953 L3.7382812,38.693359 C6.026176,36.36694 9.746804,36.374123 12.025391,38.710938 L20,46.888672 L20,39 L20,10.5 C20,8.555577 21.555577,7 23.5,7 C25.444423,7 27,8.555577 27,10.5 L29,10.5 L29,5.5 C29,3.5555768 30.555577,2 32.5,2 Z M28,12 C27.4477153,12 27,12.4477153 27,13 C27,13.5522847 27.4477153,14 28,14 C28.5522847,14 29,13.5522847 29,13 C29,12.4477153 28.5522847,12 28,12 Z M37,12 C36.4477153,12 36,12.4477153 36,13 C36,13.5522847 36.4477153,14 37,14 C37.5522847,14 38,13.5522847 38,13 C38,12.4477153 37.5522847,12 37,12 Z M28,16 C27.4477153,16 27,16.4477153 27,17 C27,17.5522847 27.4477153,18 28,18 C28.5522847,18 29,17.5522847 29,17 C29,16.4477153 28.5522847,16 28,16 Z M37,16 C36.4477153,16 36,16.4477153 36,17 C36,17.5522847 36.4477153,18 37,18 C37.5522847,18 38,17.5522847 38,17 C38,16.4477153 37.5522847,16 37,16 Z M28,20 C27.4477153,20 27,20.4477153 27,21 C27,21.5522847 27.4477153,22 28,22 C28.5522847,22 29,21.5522847 29,21 C29,20.4477153 28.5522847,20 28,20 Z M37,20 C36.4477153,20 36,20.4477153 36,21 C36,21.5522847 36.4477153,22 37,22 C37.5522847,22 38,21.5522847 38,21 C38,20.4477153 37.5522847,20 37,20 Z M46,20 C45.4477153,20 45,20.4477153 45,21 C45,21.5522847 45.4477153,22 46,22 C46.5522847,22 47,21.5522847 47,21 C47,20.4477153 46.5522847,20 46,20 Z M28,24 C27.4477153,24 27,24.4477153 27,25 C27,25.5522847 27.4477153,26 28,26 C28.5522847,26 29,25.5522847 29,25 C29,24.4477153 28.5522847,24 28,24 Z M37,24 C36.4477153,24 36,24.4477153 36,25 C36,25.5522847 36.4477153,26 37,26 C37.5522847,26 38,25.5522847 38,25 C38,24.4477153 37.5522847,24 37,24 Z M46,24 C45.4477153,24 45,24.4477153 45,25 C45,25.5522847 45.4477153,26 46,26 C46.5522847,26 47,25.5522847 47,25 C47,24.4477153 46.5522847,24 46,24 Z M28,28 C27.4477153,28 27,28.4477153 27,29 C27,29.5522847 27.4477153,30 28,30 C28.5522847,30 29,29.5522847 29,29 C29,28.4477153 28.5522847,28 28,28 Z M37,28 C36.4477153,28 36,28.4477153 36,29 C36,29.5522847 36.4477153,30 37,30 C37.5522847,30 38,29.5522847 38,29 C38,28.4477153 37.5522847,28 37,28 Z M46,28 C45.4477153,28 45,28.4477153 45,29 C45,29.5522847 45.4477153,30 46,30 C46.5522847,30 47,29.5522847 47,29 C47,28.4477153 46.5522847,28 46,28 Z M28,32 C27.4477153,32 27,32.4477153 27,33 C27,33.5522847 27.4477153,34 28,34 C28.5522847,34 29,33.5522847 29,33 C29,32.4477153 28.5522847,32 28,32 Z M37,32 C36.4477153,32 36,32.4477153 36,33 C36,33.5522847 36.4477153,34 37,34 C37.5522847,34 38,33.5522847 38,33 C38,32.4477153 37.5522847,32 37,32 Z M46,32 C45.4477153,32 45,32.4477153 45,33 C45,33.5522847 45.4477153,34 46,34 C46.5522847,34 47,33.5522847 47,33 C47,32.4477153 46.5522847,32 46,32 Z M32.277344,41 C28.816203,41 26,43.852113 26,47.332031 C26,48.832209 26.720155,50.236163 27.677734,51.544922 C28.635314,52.853681 29.867894,54.082221 31.089844,55.15625 C33.533743,57.304309 35.964844,58.84375 35.964844,58.84375 L36.5,59.185547 L37.035156,58.84375 C37.035156,58.84375 39.466257,57.304309 41.910156,55.15625 C43.132106,54.082221 44.364686,52.853681 45.322266,51.544922 C46.279845,50.236163 47,48.832209 47,47.332031 C47,43.852113 44.183797,41 40.722656,41 C39.047905,41 37.624397,41.782213 36.5,42.863281 C35.375151,41.781889 33.951919,41 32.277344,41 Z M32.277344,43 C33.680915,43 34.912631,43.67988 35.697266,44.738281 L36.5,45.822266 L37.302734,44.738281 C38.086229,43.680319 39.317897,43 40.722656,43 C43.091516,43 45,44.921949 45,47.332031 C45,48.148854 44.532655,49.23754 43.708984,50.363281 C42.885314,51.489022 41.742894,52.638873 40.589844,53.652344 C38.550776,55.444577 36.947365,56.458769 36.5,56.75 C36.052635,56.458769 34.449224,55.444577 32.410156,53.652344 C31.257106,52.638873 30.114686,51.489022 29.291016,50.363281 C28.467345,49.23754 28,48.148854 28,47.332031 C28,44.921949 29.908484,43 32.277344,43 Z" id="Shape"></path>
                </g>
            </g>
        </g>
    </g>
</svg>