<?xml version="1.0" encoding="UTF-8"?>
<svg width="104px" height="104px" viewBox="0 0 104 104" version="1.1" xmlns="http://www.w3.org/2000/svg" xmlns:xlink="http://www.w3.org/1999/xlink">
    <!-- Generator: sketchtool 52 (66869) - http://www.bohemiancoding.com/sketch -->
    <title>71DB0FB6-FFB4-4976-9AEB-1F2C3CA3A270</title>
    <desc>Created with sketchtool.</desc>
    <g id="Page-2" stroke="none" stroke-width="1" fill="none" fill-rule="evenodd">
        <g id="index-1440" transform="translate(-407.000000, -3999.000000)">
            <g id="Group-13" transform="translate(62.000000, 3999.000000)">
                <rect id="Rectangle-7-Copy" x="345" y="0" width="104" height="104"></rect>
                <g id="icons8-factory" transform="translate(364.000000, 38.000000)" fill="#644733" fill-rule="nonzero">
                    <path d="M20,0 C19.449219,0 19,0.449219 19,1 C19,1.550781 19.449219,2 20,2 C20.550781,2 21,1.550781 21,1 C21,0.449219 20.550781,0 20,0 Z M33,1 C32.449219,1 32,1.449219 32,2 C32,2.550781 32.449219,3 33,3 C33.550781,3 34,2.550781 34,2 C34,1.449219 33.550781,1 33,1 Z M37,1 C36.449219,1 36,1.449219 36,2 C36,2.550781 36.449219,3 37,3 C37.550781,3 38,2.550781 38,2 C38,1.449219 37.550781,1 37,1 Z M41,1 C40.449219,1 40,1.449219 40,2 C40,2.550781 40.449219,3 41,3 C41.550781,3 42,2.550781 42,2 C42,1.449219 41.550781,1 41,1 Z M45,1 C44.449219,1 44,1.449219 44,2 C44,2.550781 44.449219,3 45,3 C45.550781,3 46,2.550781 46,2 C46,1.449219 45.550781,1 45,1 Z M49,2 C48.449219,2 48,2.449219 48,3 C48,3.550781 48.449219,4 49,4 C49.550781,4 50,3.550781 50,3 C50,2.449219 49.550781,2 49,2 Z M23,3 C22.449219,3 22,3.449219 22,4 C22,4.550781 22.449219,5 23,5 C23.550781,5 24,4.550781 24,4 C24,3.449219 23.550781,3 23,3 Z M53,4 C52.449219,4 52,4.449219 52,5 C52,5.550781 52.449219,6 53,6 C53.550781,6 54,5.550781 54,5 C54,4.449219 53.550781,4 53,4 Z M27,5 C26.449219,5 26,5.449219 26,6 C26,6.550781 26.449219,7 27,7 C27.550781,7 28,6.550781 28,6 C28,5.449219 27.550781,5 27,5 Z M31,6 C30.449219,6 30,6.449219 30,7 C30,7.550781 30.449219,8 31,8 C31.550781,8 32,7.550781 32,7 C32,6.449219 31.550781,6 31,6 Z M35,6 C34.449219,6 34,6.449219 34,7 C34,7.550781 34.449219,8 35,8 C35.550781,8 36,7.550781 36,7 C36,6.449219 35.550781,6 35,6 Z M39,6 C38.449219,6 38,6.449219 38,7 C38,7.550781 38.449219,8 39,8 C39.550781,8 40,7.550781 40,7 C40,6.449219 39.550781,6 39,6 Z M43,6 C42.449219,6 42,6.449219 42,7 C42,7.550781 42.449219,8 43,8 C43.550781,8 44,7.550781 44,7 C44,6.449219 43.550781,6 43,6 Z M56,7 C55.449219,7 55,7.449219 55,8 C55,8.550781 55.449219,9 56,9 C56.550781,9 57,8.550781 57,8 C57,7.449219 56.550781,7 56,7 Z M48,11 L48,27.230469 L41,23 L33,27.832031 L25,23 L17,27.832031 L9,23 L0,28.4375 L0,66 L64,66 L64,11 L48,11 Z M50,13 L62,13 L62,18 C61.449219,18 61,18.449219 61,19 C61,19.550781 61.449219,20 62,20 L62,25 C61.449219,25 61,25.449219 61,26 C61,26.550781 61.449219,27 62,27 L62,33 C61.449219,33 61,33.449219 61,34 C61,34.550781 61.449219,35 62,35 L62,40 C61.449219,40 61,40.449219 61,41 C61,41.550781 61.449219,42 62,42 L62,48 C61.449219,48 61,48.449219 61,49 C61,49.550781 61.449219,50 62,50 L62,56 C61.449219,56 61,56.449219 61,57 C61,57.550781 61.449219,58 62,58 L62,64 L2,64 L2,29.5625 L9,25.335938 L17,30.167969 L25,25.335938 L33,30.167969 L41,25.335938 L50,30.769531 L50,13 Z M54,18 C53.449219,18 53,18.449219 53,19 C53,19.550781 53.449219,20 54,20 C54.550781,20 55,19.550781 55,19 C55,18.449219 54.550781,18 54,18 Z M58,18 C57.449219,18 57,18.449219 57,19 C57,19.550781 57.449219,20 58,20 C58.550781,20 59,19.550781 59,19 C59,18.449219 58.550781,18 58,18 Z M54,25 C53.449219,25 53,25.449219 53,26 C53,26.550781 53.449219,27 54,27 C54.550781,27 55,26.550781 55,26 C55,25.449219 54.550781,25 54,25 Z M58,25 C57.449219,25 57,25.449219 57,26 C57,26.550781 57.449219,27 58,27 C58.550781,27 59,26.550781 59,26 C59,25.449219 58.550781,25 58,25 Z M17,32 C16.449219,32 16,32.449219 16,33 C16,33.550781 16.449219,34 17,34 C17.550781,34 18,33.550781 18,33 C18,32.449219 17.550781,32 17,32 Z M33,32 C32.449219,32 32,32.449219 32,33 C32,33.550781 32.449219,34 33,34 C33.550781,34 34,33.550781 34,33 C34,32.449219 33.550781,32 33,32 Z M49,32 C48.449219,32 48,32.449219 48,33 C48,33.550781 48.449219,34 49,34 C49.550781,34 50,33.550781 50,33 C50,32.449219 49.550781,32 49,32 Z M54,33 C53.449219,33 53,33.449219 53,34 C53,34.550781 53.449219,35 54,35 C54.550781,35 55,34.550781 55,34 C55,33.449219 54.550781,33 54,33 Z M58,33 C57.449219,33 57,33.449219 57,34 C57,34.550781 57.449219,35 58,35 C58.550781,35 59,34.550781 59,34 C59,33.449219 58.550781,33 58,33 Z M17,36 C16.449219,36 16,36.449219 16,37 C16,37.550781 16.449219,38 17,38 C17.550781,38 18,37.550781 18,37 C18,36.449219 17.550781,36 17,36 Z M33,36 C32.449219,36 32,36.449219 32,37 C32,37.550781 32.449219,38 33,38 C33.550781,38 34,37.550781 34,37 C34,36.449219 33.550781,36 33,36 Z M49,36 C48.449219,36 48,36.449219 48,37 C48,37.550781 48.449219,38 49,38 C49.550781,38 50,37.550781 50,37 C50,36.449219 49.550781,36 49,36 Z M6,37 L6,45 L12,45 L12,37 L6,37 Z M22,37 L22,45 L28,45 L28,37 L22,37 Z M38,37 L38,45 L44,45 L44,37 L38,37 Z M8,39 L10,39 L10,43 L8,43 L8,39 Z M24,39 L26,39 L26,43 L24,43 L24,39 Z M40,39 L42,39 L42,43 L40,43 L40,39 Z M17,40 C16.449219,40 16,40.449219 16,41 C16,41.550781 16.449219,42 17,42 C17.550781,42 18,41.550781 18,41 C18,40.449219 17.550781,40 17,40 Z M33,40 C32.449219,40 32,40.449219 32,41 C32,41.550781 32.449219,42 33,42 C33.550781,42 34,41.550781 34,41 C34,40.449219 33.550781,40 33,40 Z M49,40 C48.449219,40 48,40.449219 48,41 C48,41.550781 48.449219,42 49,42 C49.550781,42 50,41.550781 50,41 C50,40.449219 49.550781,40 49,40 Z M54,40 C53.449219,40 53,40.449219 53,41 C53,41.550781 53.449219,42 54,42 C54.550781,42 55,41.550781 55,41 C55,40.449219 54.550781,40 54,40 Z M58,40 C57.449219,40 57,40.449219 57,41 C57,41.550781 57.449219,42 58,42 C58.550781,42 59,41.550781 59,41 C59,40.449219 58.550781,40 58,40 Z M17,44 C16.449219,44 16,44.449219 16,45 C16,45.550781 16.449219,46 17,46 C17.550781,46 18,45.550781 18,45 C18,44.449219 17.550781,44 17,44 Z M33,44 C32.449219,44 32,44.449219 32,45 C32,45.550781 32.449219,46 33,46 C33.550781,46 34,45.550781 34,45 C34,44.449219 33.550781,44 33,44 Z M49,44 C48.449219,44 48,44.449219 48,45 C48,45.550781 48.449219,46 49,46 C49.550781,46 50,45.550781 50,45 C50,44.449219 49.550781,44 49,44 Z M17,48 C16.449219,48 16,48.449219 16,49 C16,49.550781 16.449219,50 17,50 C17.550781,50 18,49.550781 18,49 C18,48.449219 17.550781,48 17,48 Z M33,48 C32.449219,48 32,48.449219 32,49 C32,49.550781 32.449219,50 33,50 C33.550781,50 34,49.550781 34,49 C34,48.449219 33.550781,48 33,48 Z M49,48 C48.449219,48 48,48.449219 48,49 C48,49.550781 48.449219,50 49,50 C49.550781,50 50,49.550781 50,49 C50,48.449219 49.550781,48 49,48 Z M54,48 C53.449219,48 53,48.449219 53,49 C53,49.550781 53.449219,50 54,50 C54.550781,50 55,49.550781 55,49 C55,48.449219 54.550781,48 54,48 Z M58,48 C57.449219,48 57,48.449219 57,49 C57,49.550781 57.449219,50 58,50 C58.550781,50 59,49.550781 59,49 C59,48.449219 58.550781,48 58,48 Z M6,49 L6,57 L12,57 L12,49 L6,49 Z M22,49 L22,57 L28,57 L28,49 L22,49 Z M38,49 L38,57 L44,57 L44,49 L38,49 Z M8,51 L10,51 L10,55 L8,55 L8,51 Z M24,51 L26,51 L26,55 L24,55 L24,51 Z M40,51 L42,51 L42,55 L40,55 L40,51 Z M17,52 C16.449219,52 16,52.449219 16,53 C16,53.550781 16.449219,54 17,54 C17.550781,54 18,53.550781 18,53 C18,52.449219 17.550781,52 17,52 Z M33,52 C32.449219,52 32,52.449219 32,53 C32,53.550781 32.449219,54 33,54 C33.550781,54 34,53.550781 34,53 C34,52.449219 33.550781,52 33,52 Z M49,52 C48.449219,52 48,52.449219 48,53 C48,53.550781 48.449219,54 49,54 C49.550781,54 50,53.550781 50,53 C50,52.449219 49.550781,52 49,52 Z M17,56 C16.449219,56 16,56.449219 16,57 C16,57.550781 16.449219,58 17,58 C17.550781,58 18,57.550781 18,57 C18,56.449219 17.550781,56 17,56 Z M33,56 C32.449219,56 32,56.449219 32,57 C32,57.550781 32.449219,58 33,58 C33.550781,58 34,57.550781 34,57 C34,56.449219 33.550781,56 33,56 Z M49,56 C48.449219,56 48,56.449219 48,57 C48,57.550781 48.449219,58 49,58 C49.550781,58 50,57.550781 50,57 C50,56.449219 49.550781,56 49,56 Z M54,56 C53.449219,56 53,56.449219 53,57 C53,57.550781 53.449219,58 54,58 C54.550781,58 55,57.550781 55,57 C55,56.449219 54.550781,56 54,56 Z M58,56 C57.449219,56 57,56.449219 57,57 C57,57.550781 57.449219,58 58,58 C58.550781,58 59,57.550781 59,57 C59,56.449219 58.550781,56 58,56 Z M17,60 C16.449219,60 16,60.449219 16,61 C16,61.550781 16.449219,62 17,62 C17.550781,62 18,61.550781 18,61 C18,60.449219 17.550781,60 17,60 Z M33,60 C32.449219,60 32,60.449219 32,61 C32,61.550781 32.449219,62 33,62 C33.550781,62 34,61.550781 34,61 C34,60.449219 33.550781,60 33,60 Z M49,60 C48.449219,60 48,60.449219 48,61 C48,61.550781 48.449219,62 49,62 C49.550781,62 50,61.550781 50,61 C50,60.449219 49.550781,60 49,60 Z" id="Shape"></path>
                </g>
            </g>
        </g>
    </g>
</svg>