<?xml version="1.0" encoding="UTF-8"?>
<svg width="104px" height="104px" viewBox="0 0 104 104" version="1.1" xmlns="http://www.w3.org/2000/svg" xmlns:xlink="http://www.w3.org/1999/xlink">
    <!-- Generator: sketchtool 52 (66869) - http://www.bohemiancoding.com/sketch -->
    <title>BD457532-6E5F-4E3B-A248-84327D34358E</title>
    <desc>Created with sketchtool.</desc>
    <g id="Page-2" stroke="none" stroke-width="1" fill="none" fill-rule="evenodd">
        <g id="index-1440" transform="translate(-668.000000, -3999.000000)">
            <g id="Group-13" transform="translate(62.000000, 3999.000000)">
                <rect id="Rectangle-7-Copy-2" x="606" y="0" width="104" height="104"></rect>
                <g id="icons8-gift" transform="translate(626.000000, 36.000000)" fill="#644733" fill-rule="nonzero">
                    <path d="M22,0 C18.699219,0 16,2.699219 16,6 C16,7.535156 16.589844,8.9375 17.546875,10 L0,10 L0,24 L2,24 L2,68 L62,68 L62,24 L64,24 L64,10 L46.453125,10 C47.410156,8.9375 48,7.535156 48,6 C48,2.699219 45.300781,0 42,0 C40.417969,0 38.976563,0.761719 37.703125,1.78125 C36.429688,2.800781 35.292969,4.109375 34.324219,5.398438 C33.359375,6.683594 32.5625,7.960938 32,8.925781 C31.4375,7.960938 30.640625,6.683594 29.675781,5.398438 C28.707031,4.109375 27.570313,2.800781 26.296875,1.78125 C25.023438,0.761719 23.582031,0 22,0 Z M22,2 C22.917969,2 23.976563,2.488281 25.046875,3.34375 C26.117188,4.199219 27.167969,5.390625 28.074219,6.601563 C29.34375,8.292969 29.730469,9.132813 30.203125,10 L22,10 C19.78125,10 18,8.21875 18,6 C18,3.78125 19.78125,2 22,2 Z M42,2 C44.21875,2 46,3.78125 46,6 C46,8.21875 44.21875,10 42,10 L33.796875,10 C34.269531,9.132813 34.65625,8.292969 35.925781,6.601563 C36.832031,5.390625 37.882813,4.199219 38.953125,3.34375 C40.023438,2.488281 41.082031,2 42,2 Z M2,12 L27,12 C27,12.550781 27.449219,13 28,13 C28.550781,13 29,12.550781 29,12 L35,12 C35,12.550781 35.449219,13 36,13 C36.550781,13 37,12.550781 37,12 L62,12 L62,22 L2,22 L2,12 Z M6,14 C5.449219,14 5,14.449219 5,15 C5,15.550781 5.449219,16 6,16 C6.550781,16 7,15.550781 7,15 C7,14.449219 6.550781,14 6,14 Z M58,14 C57.449219,14 57,14.449219 57,15 C57,15.550781 57.449219,16 58,16 C58.550781,16 59,15.550781 59,15 C59,14.449219 58.550781,14 58,14 Z M28,15 C27.449219,15 27,15.449219 27,16 C27,16.550781 27.449219,17 28,17 C28.550781,17 29,16.550781 29,16 C29,15.449219 28.550781,15 28,15 Z M36,15 C35.449219,15 35,15.449219 35,16 C35,16.550781 35.449219,17 36,17 C36.550781,17 37,16.550781 37,16 C37,15.449219 36.550781,15 36,15 Z M6,18 C5.449219,18 5,18.449219 5,19 C5,19.550781 5.449219,20 6,20 C6.550781,20 7,19.550781 7,19 C7,18.449219 6.550781,18 6,18 Z M58,18 C57.449219,18 57,18.449219 57,19 C57,19.550781 57.449219,20 58,20 C58.550781,20 59,19.550781 59,19 C59,18.449219 58.550781,18 58,18 Z M28,19 C27.449219,19 27,19.449219 27,20 C27,20.550781 27.449219,21 28,21 C28.550781,21 29,20.550781 29,20 C29,19.449219 28.550781,19 28,19 Z M36,19 C35.449219,19 35,19.449219 35,20 C35,20.550781 35.449219,21 36,21 C36.550781,21 37,20.550781 37,20 C37,19.449219 36.550781,19 36,19 Z M4,24 L27,24 C27,24.550781 27.449219,25 28,25 C28.550781,25 29,24.550781 29,24 L35,24 C35,24.550781 35.449219,25 36,25 C36.550781,25 37,24.550781 37,24 L60,24 L60,66 L4,66 L4,24 Z M8,26 C7.449219,26 7,26.449219 7,27 C7,27.550781 7.449219,28 8,28 C8.550781,28 9,27.550781 9,27 C9,26.449219 8.550781,26 8,26 Z M56,26 C55.449219,26 55,26.449219 55,27 C55,27.550781 55.449219,28 56,28 C56.550781,28 57,27.550781 57,27 C57,26.449219 56.550781,26 56,26 Z M28,27 C27.449219,27 27,27.449219 27,28 C27,28.550781 27.449219,29 28,29 C28.550781,29 29,28.550781 29,28 C29,27.449219 28.550781,27 28,27 Z M36,27 C35.449219,27 35,27.449219 35,28 C35,28.550781 35.449219,29 36,29 C36.550781,29 37,28.550781 37,28 C37,27.449219 36.550781,27 36,27 Z M8,30 C7.449219,30 7,30.449219 7,31 C7,31.550781 7.449219,32 8,32 C8.550781,32 9,31.550781 9,31 C9,30.449219 8.550781,30 8,30 Z M56,30 C55.449219,30 55,30.449219 55,31 C55,31.550781 55.449219,32 56,32 C56.550781,32 57,31.550781 57,31 C57,30.449219 56.550781,30 56,30 Z M28,31 C27.449219,31 27,31.449219 27,32 C27,32.550781 27.449219,33 28,33 C28.550781,33 29,32.550781 29,32 C29,31.449219 28.550781,31 28,31 Z M36,31 C35.449219,31 35,31.449219 35,32 C35,32.550781 35.449219,33 36,33 C36.550781,33 37,32.550781 37,32 C37,31.449219 36.550781,31 36,31 Z M8,34 C7.449219,34 7,34.449219 7,35 C7,35.550781 7.449219,36 8,36 C8.550781,36 9,35.550781 9,35 C9,34.449219 8.550781,34 8,34 Z M56,34 C55.449219,34 55,34.449219 55,35 C55,35.550781 55.449219,36 56,36 C56.550781,36 57,35.550781 57,35 C57,34.449219 56.550781,34 56,34 Z M28,35 C27.449219,35 27,35.449219 27,36 C27,36.550781 27.449219,37 28,37 C28.550781,37 29,36.550781 29,36 C29,35.449219 28.550781,35 28,35 Z M36,35 C35.449219,35 35,35.449219 35,36 C35,36.550781 35.449219,37 36,37 C36.550781,37 37,36.550781 37,36 C37,35.449219 36.550781,35 36,35 Z M8,38 C7.449219,38 7,38.449219 7,39 C7,39.550781 7.449219,40 8,40 C8.550781,40 9,39.550781 9,39 C9,38.449219 8.550781,38 8,38 Z M56,38 C55.449219,38 55,38.449219 55,39 C55,39.550781 55.449219,40 56,40 C56.550781,40 57,39.550781 57,39 C57,38.449219 56.550781,38 56,38 Z M28,39 C27.449219,39 27,39.449219 27,40 C27,40.550781 27.449219,41 28,41 C28.550781,41 29,40.550781 29,40 C29,39.449219 28.550781,39 28,39 Z M36,39 C35.449219,39 35,39.449219 35,40 C35,40.550781 35.449219,41 36,41 C36.550781,41 37,40.550781 37,40 C37,39.449219 36.550781,39 36,39 Z M8,42 C7.449219,42 7,42.449219 7,43 C7,43.550781 7.449219,44 8,44 C8.550781,44 9,43.550781 9,43 C9,42.449219 8.550781,42 8,42 Z M56,42 C55.449219,42 55,42.449219 55,43 C55,43.550781 55.449219,44 56,44 C56.550781,44 57,43.550781 57,43 C57,42.449219 56.550781,42 56,42 Z M28,43 C27.449219,43 27,43.449219 27,44 C27,44.550781 27.449219,45 28,45 C28.550781,45 29,44.550781 29,44 C29,43.449219 28.550781,43 28,43 Z M36,43 C35.449219,43 35,43.449219 35,44 C35,44.550781 35.449219,45 36,45 C36.550781,45 37,44.550781 37,44 C37,43.449219 36.550781,43 36,43 Z M8,46 C7.449219,46 7,46.449219 7,47 C7,47.550781 7.449219,48 8,48 C8.550781,48 9,47.550781 9,47 C9,46.449219 8.550781,46 8,46 Z M56,46 C55.449219,46 55,46.449219 55,47 C55,47.550781 55.449219,48 56,48 C56.550781,48 57,47.550781 57,47 C57,46.449219 56.550781,46 56,46 Z M28,47 C27.449219,47 27,47.449219 27,48 C27,48.550781 27.449219,49 28,49 C28.550781,49 29,48.550781 29,48 C29,47.449219 28.550781,47 28,47 Z M36,47 C35.449219,47 35,47.449219 35,48 C35,48.550781 35.449219,49 36,49 C36.550781,49 37,48.550781 37,48 C37,47.449219 36.550781,47 36,47 Z M8,50 C7.449219,50 7,50.449219 7,51 C7,51.550781 7.449219,52 8,52 C8.550781,52 9,51.550781 9,51 C9,50.449219 8.550781,50 8,50 Z M56,50 C55.449219,50 55,50.449219 55,51 C55,51.550781 55.449219,52 56,52 C56.550781,52 57,51.550781 57,51 C57,50.449219 56.550781,50 56,50 Z M28,51 C27.449219,51 27,51.449219 27,52 C27,52.550781 27.449219,53 28,53 C28.550781,53 29,52.550781 29,52 C29,51.449219 28.550781,51 28,51 Z M36,51 C35.449219,51 35,51.449219 35,52 C35,52.550781 35.449219,53 36,53 C36.550781,53 37,52.550781 37,52 C37,51.449219 36.550781,51 36,51 Z M8,54 C7.449219,54 7,54.449219 7,55 C7,55.550781 7.449219,56 8,56 C8.550781,56 9,55.550781 9,55 C9,54.449219 8.550781,54 8,54 Z M56,54 C55.449219,54 55,54.449219 55,55 C55,55.550781 55.449219,56 56,56 C56.550781,56 57,55.550781 57,55 C57,54.449219 56.550781,54 56,54 Z M28,55 C27.449219,55 27,55.449219 27,56 C27,56.550781 27.449219,57 28,57 C28.550781,57 29,56.550781 29,56 C29,55.449219 28.550781,55 28,55 Z M36,55 C35.449219,55 35,55.449219 35,56 C35,56.550781 35.449219,57 36,57 C36.550781,57 37,56.550781 37,56 C37,55.449219 36.550781,55 36,55 Z M8,58 C7.449219,58 7,58.449219 7,59 C7,59.550781 7.449219,60 8,60 C8.550781,60 9,59.550781 9,59 C9,58.449219 8.550781,58 8,58 Z M56,58 C55.449219,58 55,58.449219 55,59 C55,59.550781 55.449219,60 56,60 C56.550781,60 57,59.550781 57,59 C57,58.449219 56.550781,58 56,58 Z M28,59 C27.449219,59 27,59.449219 27,60 C27,60.550781 27.449219,61 28,61 C28.550781,61 29,60.550781 29,60 C29,59.449219 28.550781,59 28,59 Z M36,59 C35.449219,59 35,59.449219 35,60 C35,60.550781 35.449219,61 36,61 C36.550781,61 37,60.550781 37,60 C37,59.449219 36.550781,59 36,59 Z M8,62 C7.449219,62 7,62.449219 7,63 C7,63.550781 7.449219,64 8,64 C8.550781,64 9,63.550781 9,63 C9,62.449219 8.550781,62 8,62 Z M56,62 C55.449219,62 55,62.449219 55,63 C55,63.550781 55.449219,64 56,64 C56.550781,64 57,63.550781 57,63 C57,62.449219 56.550781,62 56,62 Z M28,63 C27.449219,63 27,63.449219 27,64 C27,64.550781 27.449219,65 28,65 C28.550781,65 29,64.550781 29,64 C29,63.449219 28.550781,63 28,63 Z M36,63 C35.449219,63 35,63.449219 35,64 C35,64.550781 35.449219,65 36,65 C36.550781,65 37,64.550781 37,64 C37,63.449219 36.550781,63 36,63 Z" id="Shape"></path>
                </g>
            </g>
        </g>
    </g>
</svg>