<?xml version="1.0" encoding="UTF-8"?>
<svg width="104px" height="104px" viewBox="0 0 104 104" version="1.1" xmlns="http://www.w3.org/2000/svg" xmlns:xlink="http://www.w3.org/1999/xlink">
    <!-- Generator: sketchtool 52 (66869) - http://www.bohemiancoding.com/sketch -->
    <title>BFD0AF53-5BB2-49CB-B27C-F09E022F5DB3</title>
    <desc>Created with sketchtool.</desc>
    <g id="Page-2" stroke="none" stroke-width="1" fill="none" fill-rule="evenodd">
        <g id="index-1440" transform="translate(-928.000000, -3999.000000)">
            <g id="Group-13" transform="translate(62.000000, 3999.000000)">
                <rect id="Rectangle-7-Copy-3" x="866" y="0" width="104" height="104"></rect>
                <g id="icons8-shipped" transform="translate(878.000000, 40.000000)" fill="#644733" fill-rule="nonzero">
                    <path d="M0,0 L0,43 L3,43 L3,56 L8.058594,56 C8.558594,60.488281 12.378906,64 17,64 C21.621094,64 25.441406,60.488281 25.941406,56 L50.058594,56 C50.558594,60.488281 54.378906,64 59,64 C63.621094,64 67.441406,60.488281 67.941406,56 L78,56 C79.09375,56 80,55.09375 80,54 L80,50 C80,49.292969 79.5625,48.773438 79,48.417969 L79,34.546875 L72.414063,17.480469 C71.375,14.785156 68.773438,13 65.886719,13 L47,13 L47,0 L0,0 Z M2,2 L45,2 L45,41 C44.449219,41 44,41.449219 44,42 C44,42.550781 44.449219,43 45,43 L45,54 L25.941406,54 C25.441406,49.511719 21.621094,46 17,46 C12.378906,46 8.558594,49.511719 8.058594,54 L5,54 L5,43 C5.550781,43 6,42.550781 6,42 C6,41.449219 5.550781,41 5,41 L2,41 L2,2 Z M35.144531,13.375 L20.453125,27.542969 L13,19.898438 L10.851563,21.992188 L20.386719,31.769531 L37.226563,15.535156 L35.144531,13.375 Z M47,15 L61,15 L61,29 C61,31.199219 62.800781,33 65,33 L66.394531,33 C67.066406,33 67.6875,33.332031 68.058594,33.890625 L68.277344,34.21875 C69.019531,35.332031 70.269531,36 71.605469,36 L77,36 L77,38 L75,38 C72.800781,38 71,39.800781 71,42 L71,43 L71.203125,43 C71.660156,44.707031 73.15625,46 75,46 L77,46 L77,48 C76.449219,48 76,48.449219 76,49 C76,49.550781 76.449219,50 77,50 L78,50 L78,54 L67.941406,54 C67.441406,49.511719 63.621094,46 59,46 C54.378906,46 50.558594,49.511719 50.058594,54 L47,54 L47,15 Z M63,15 L65.886719,15 C67.953125,15 69.804688,16.269531 70.546875,18.199219 L76.644531,34 L71.605469,34 C70.933594,34 70.3125,33.667969 69.941406,33.109375 L69.71875,32.78125 C68.980469,31.667969 67.730469,31 66.394531,31 L65,31 C63.882813,31 63,30.117188 63,29 L63,15 Z M53,18 C51.355469,18 50,19.355469 50,21 L50,30 C50,31.644531 51.355469,33 53,33 L55,33 C56.644531,33 58,31.644531 58,30 L58,21 C58,19.355469 56.644531,18 55,18 L53,18 Z M53,20 L55,20 C55.566406,20 56,20.433594 56,21 L56,30 C56,30.566406 55.566406,31 55,31 L53,31 C52.433594,31 52,30.566406 52,30 L52,21 C52,20.433594 52.433594,20 53,20 Z M75,40 L77,40 L77,44 L75,44 C73.882813,44 73,43.117188 73,42 C73,40.882813 73.882813,40 75,40 Z M9,41 C8.449219,41 8,41.449219 8,42 C8,42.550781 8.449219,43 9,43 C9.550781,43 10,42.550781 10,42 C10,41.449219 9.550781,41 9,41 Z M13,41 C12.449219,41 12,41.449219 12,42 C12,42.550781 12.449219,43 13,43 C13.550781,43 14,42.550781 14,42 C14,41.449219 13.550781,41 13,41 Z M17,41 C16.449219,41 16,41.449219 16,42 C16,42.550781 16.449219,43 17,43 C17.550781,43 18,42.550781 18,42 C18,41.449219 17.550781,41 17,41 Z M21,41 C20.449219,41 20,41.449219 20,42 C20,42.550781 20.449219,43 21,43 C21.550781,43 22,42.550781 22,42 C22,41.449219 21.550781,41 21,41 Z M25,41 C24.449219,41 24,41.449219 24,42 C24,42.550781 24.449219,43 25,43 C25.550781,43 26,42.550781 26,42 C26,41.449219 25.550781,41 25,41 Z M29,41 C28.449219,41 28,41.449219 28,42 C28,42.550781 28.449219,43 29,43 C29.550781,43 30,42.550781 30,42 C30,41.449219 29.550781,41 29,41 Z M33,41 C32.449219,41 32,41.449219 32,42 C32,42.550781 32.449219,43 33,43 C33.550781,43 34,42.550781 34,42 C34,41.449219 33.550781,41 33,41 Z M37,41 C36.449219,41 36,41.449219 36,42 C36,42.550781 36.449219,43 37,43 C37.550781,43 38,42.550781 38,42 C38,41.449219 37.550781,41 37,41 Z M41,41 C40.449219,41 40,41.449219 40,42 C40,42.550781 40.449219,43 41,43 C41.550781,43 42,42.550781 42,42 C42,41.449219 41.550781,41 41,41 Z M17,48 C20.878906,48 24,51.121094 24,55 C24,58.878906 20.878906,62 17,62 C13.121094,62 10,58.878906 10,55 C10,51.121094 13.121094,48 17,48 Z M59,48 C62.878906,48 66,51.121094 66,55 C66,58.878906 62.878906,62 59,62 C55.121094,62 52,58.878906 52,55 C52,51.121094 55.121094,48 59,48 Z M69,48 C68.449219,48 68,48.449219 68,49 C68,49.550781 68.449219,50 69,50 C69.550781,50 70,49.550781 70,49 C70,48.449219 69.550781,48 69,48 Z M73,48 C72.449219,48 72,48.449219 72,49 C72,49.550781 72.449219,50 73,50 C73.550781,50 74,49.550781 74,49 C74,48.449219 73.550781,48 73,48 Z M17,52 C15.355469,52 14,53.355469 14,55 C14,56.644531 15.355469,58 17,58 C18.644531,58 20,56.644531 20,55 C20,53.355469 18.644531,52 17,52 Z M59,52 C57.355469,52 56,53.355469 56,55 C56,56.644531 57.355469,58 59,58 C60.644531,58 62,56.644531 62,55 C62,53.355469 60.644531,52 59,52 Z M17,54 C17.5625,54 18,54.4375 18,55 C18,55.5625 17.5625,56 17,56 C16.4375,56 16,55.5625 16,55 C16,54.4375 16.4375,54 17,54 Z M59,54 C59.5625,54 60,54.4375 60,55 C60,55.5625 59.5625,56 59,56 C58.4375,56 58,55.5625 58,55 C58,54.4375 58.4375,54 59,54 Z" id="Shape"></path>
                </g>
            </g>
        </g>
    </g>
</svg>