<?xml version="1.0" encoding="UTF-8"?>
<svg width="21px" height="11px" viewBox="0 0 21 11" version="1.1" xmlns="http://www.w3.org/2000/svg" xmlns:xlink="http://www.w3.org/1999/xlink">
    <!-- Generator: sketchtool 52 (66869) - http://www.bohemiancoding.com/sketch -->
    <title>428FF261-CD40-4FF5-9438-9D7AA37E410D</title>
    <desc>Created with sketchtool.</desc>
    <g id="Page-2" stroke="none" stroke-width="1" fill="none" fill-rule="evenodd">
        <g id="catalog-320" transform="translate(-277.000000, -82.000000)" fill="#644733">
            <g id="Group-2" transform="translate(25.000000, 76.000000)">
                <g id="icons8-long_arrow_right_filled-2" transform="translate(252.000000, 6.000000)">
                    <g id="icons8-long_arrow_right_filled">
                        <path d="M15.8822546,0.420201 C15.5340403,0.406808143 15.2109377,0.606027 15.0686383,0.924107143 C14.9246653,1.24218771 14.9866071,1.61383929 15.2276786,1.86830357 L17.861049,4.71428571 L1.28571429,4.71428571 C0.976004571,4.70926329 0.689732143,4.871652 0.534040286,5.13950914 C0.376674,5.40569186 0.376674,5.73716529 0.534040286,6.00334843 C0.689732143,6.27120557 0.976004571,6.43359386 1.28571429,6.42857143 L17.861049,6.42857143 L15.2276786,9.27455357 C15.0133929,9.49888414 14.9380581,9.82031271 15.0284597,10.1166296 C15.1188617,10.4129464 15.3616071,10.637277 15.6629464,10.7042413 C15.9659597,10.7712056 16.2806919,10.6690847 16.4866071,10.4397321 L20.3604907,6.25034808 C20.7148738,5.86710303 20.7148738,5.27575412 20.3604907,4.89250906 L16.4866071,0.703125 C16.3325893,0.532366286 16.1132811,0.428571429 15.8822546,0.420201 Z" id="Path"></path>
                    </g>
                </g>
            </g>
        </g>
    </g>
</svg>