<?xml version="1.0" encoding="UTF-8"?>
<svg width="26px" height="16px" viewBox="0 0 26 16" version="1.1" xmlns="http://www.w3.org/2000/svg" xmlns:xlink="http://www.w3.org/1999/xlink">
    <!-- Generator: sketchtool 52 (66869) - http://www.bohemiancoding.com/sketch -->
    <title>A11DA755-73CE-4D34-A0BA-72020BB99900</title>
    <desc>Created with sketchtool.</desc>
    <g id="Page-2" stroke="none" stroke-width="1" fill="none" fill-rule="evenodd">
        <g id="catalog-320" transform="translate(-271.000000, -22.000000)" fill="#644733" fill-rule="nonzero">
            <g id="icons8-menu" transform="translate(270.000000, 22.000000)">
                <path d="M2,-8.00005678e-17 C1.63936408,-0.00510028955 1.30391864,0.184375296 1.12211228,0.49587285 C0.940305922,0.807370403 0.940305922,1.1926296 1.12211228,1.50412715 C1.30391864,1.8156247 1.63936408,2.00510029 2,2 L26,2 C26.3606359,2.00510029 26.6960814,1.8156247 26.8778877,1.50412715 C27.0596941,1.1926296 27.0596941,0.807370403 26.8778877,0.49587285 C26.6960814,0.184375296 26.3606359,-0.00510028955 26,8.08177852e-16 L2,-8.00005678e-17 Z M2,7 C1.63936408,6.99489971 1.30391864,7.1843753 1.12211228,7.49587285 C0.940305922,7.8073704 0.940305922,8.1926296 1.12211228,8.50412715 C1.30391864,8.8156247 1.63936408,9.00510029 2,9 L26,9 C26.3606359,9.00510029 26.6960814,8.8156247 26.8778877,8.50412715 C27.0596941,8.1926296 27.0596941,7.8073704 26.8778877,7.49587285 C26.6960814,7.1843753 26.3606359,6.99489971 26,7 L2,7 Z M2,14 C1.63936408,13.9948997 1.30391864,14.1843753 1.12211228,14.4958728 C0.940305922,14.8073704 0.940305922,15.1926296 1.12211228,15.5041272 C1.30391864,15.8156247 1.63936408,16.0051003 2,16 L26,16 C26.3606359,16.0051003 26.6960814,15.8156247 26.8778877,15.5041272 C27.0596941,15.1926296 27.0596941,14.8073704 26.8778877,14.4958728 C26.6960814,14.1843753 26.3606359,13.9948997 26,14 L2,14 Z" id="Shape"></path>
            </g>
        </g>
    </g>
</svg>