<?xml version="1.0" encoding="UTF-8"?>
<svg width="25px" height="24px" viewBox="0 0 25 24" version="1.1" xmlns="http://www.w3.org/2000/svg" xmlns:xlink="http://www.w3.org/1999/xlink">
    <!-- Generator: sketchtool 52 (66869) - http://www.bohemiancoding.com/sketch -->
    <title>908EE95D-6253-4DC7-8195-8204667BBCE7</title>
    <desc>Created with sketchtool.</desc>
    <g id="Page-2" stroke="none" stroke-width="1" fill="none" fill-rule="evenodd">
        <g id="filther-320-" transform="translate(-274.000000, -19.000000)" fill="#644733">
            <g id="icons8-multiply" transform="translate(274.000000, 19.000000)">
                <path d="M0.703125,0.703125 L0.703125,0.703125 C0.315371272,1.09087873 0.315371272,1.71955174 0.703125,2.10730546 C0.703469669,2.10765013 0.703814591,2.10799455 0.704159767,2.10833871 L10.625,12 L0.704159767,21.8916613 C0.315835393,22.2788435 0.314909514,22.9075159 0.702091756,23.2958402 C0.702435917,23.2961854 0.702780331,23.2965303 0.703125,23.296875 L0.703125,23.296875 C1.09178429,23.6855343 1.72163925,23.6864605 2.11143996,23.298946 L12.0625,13.40625 L21.9833402,23.2979113 C22.3724046,23.6858313 23.0021324,23.6853676 23.390625,23.296875 L23.390625,23.296875 C23.7783787,22.9091213 23.7783787,22.2804483 23.390625,21.8926945 C23.3902803,21.8923499 23.3899354,21.8920055 23.3895902,21.8916613 L13.46875,12 L23.3895902,2.10833871 C23.7779146,1.72115647 23.7788405,1.09248414 23.3916582,0.704159767 C23.3913141,0.703814591 23.3909697,0.703469669 23.390625,0.703125 L23.390625,0.703125 C23.0021324,0.31463239 22.3724046,0.314168673 21.9833402,0.702088708 L12.0625,10.59375 L2.11143996,0.701053953 C1.72163925,0.313539457 1.09178429,0.314465713 0.703125,0.703125 Z" id="Path"></path>
            </g>
        </g>
    </g>
</svg>