<?xml version="1.0" encoding="UTF-8"?>
<svg width="40px" height="44px" viewBox="0 0 40 44" version="1.1" xmlns="http://www.w3.org/2000/svg" xmlns:xlink="http://www.w3.org/1999/xlink">
    <!-- Generator: sketchtool 52 (66869) - http://www.bohemiancoding.com/sketch -->
    <title>4A0ACE16-B366-4338-9A2B-AB121D6A98A9</title>
    <desc>Created with sketchtool.</desc>
    <g id="Page-2" stroke="none" stroke-width="1" fill="none" fill-rule="evenodd">
        <g id="korzina-1440" transform="translate(-1062.000000, -136.000000)" fill="#5B4630">
            <g id="Group-13" transform="translate(1062.000000, 136.000000)">
                <g id="Group-9">
                    <g id="icons8-new_file">
                        <path d="M0,0 L0,38.1538462 L16,38.1538462 L17.2307692,38.1538462 L19.4615385,38.1538462 L17.2307692,36.9230769 L16,36.9230769 L1.23076923,36.9230769 L1.23076923,1.23076923 L20.9230769,1.23076923 L20.9230769,9.84615385 L29.5384615,9.84615385 L29.5384615,18.4615385 L29.5384615,20.3076923 L30.7692308,21.5384615 L30.7692308,20.3076923 L30.7692308,18.4615385 L30.7692308,8.97596185 L21.7932689,0 L0,0 Z M22.1538462,2.10096123 L28.6682695,8.61538462 L22.1538462,8.61538462 L22.1538462,2.10096123 Z M29.5384615,22.2463945 L29.125,22.620192 L26.8581729,24.6730769 L23.2632209,24.2860578 L22.5204326,27.8245194 L19.3846154,29.6237982 L20.8641828,32.9230769 L19.3846154,36.2223557 L22.5204326,38.0216345 L23.2632209,41.560096 L26.8581729,41.1730769 L29.5384615,43.5997594 L32.2187502,41.1730769 L35.8137022,41.560096 L36.5564905,38.0216345 L39.6923077,36.2223557 L38.2127403,32.9230769 L39.6923077,29.6237982 L36.5564905,27.8245194 L35.8137022,24.2860578 L32.2187502,24.6730769 L29.5384615,22.2463945 Z M29.5384615,23.9074517 L31.8016825,25.9555286 L34.8377403,25.6286055 L35.465144,28.6177883 L38.1129809,30.1370191 L36.8641828,32.9230769 L38.1129809,35.7091348 L35.465144,37.2283655 L34.8377403,40.2175483 L31.8016825,39.8906252 L29.5384615,41.9387022 L27.2752406,39.8906252 L24.2391828,40.2175483 L23.6117791,37.2283655 L20.9639422,35.7091348 L22.2127403,32.9230769 L20.9639422,30.1370191 L23.6117791,28.6177883 L24.2391828,25.6286055 L27.2752406,25.9555286 L29.5384615,23.9074517 Z" id="Shape" fill-rule="nonzero"></path>
                        <g id="Group-12" transform="translate(25.000000, 29.000000)">
                            <rect id="Rectangle" x="4" y="0" width="1" height="8"></rect>
                            <rect id="Rectangle" transform="translate(4.500000, 4.000000) rotate(90.000000) translate(-4.500000, -4.000000) " x="4" y="0" width="1" height="8"></rect>
                        </g>
                    </g>
                </g>
            </g>
        </g>
    </g>
</svg>