<?xml version="1.0" encoding="UTF-8"?>
<svg width="34px" height="32px" viewBox="0 0 34 32" version="1.1" xmlns="http://www.w3.org/2000/svg" xmlns:xlink="http://www.w3.org/1999/xlink">
    <!-- Generator: sketchtool 52 (66869) - http://www.bohemiancoding.com/sketch -->
    <title>A4BA90C2-0DA2-4D79-A08C-88998711E50B</title>
    <desc>Created with sketchtool.</desc>
    <g id="Symbols" stroke="none" stroke-width="1" fill="none" fill-rule="evenodd">
        <g id="Star-2">
            <polygon id="Star" fill="#F6773E" points="17 28.8 12.0557281 31.2169043 9.47634877 26.3554175 4.05572809 25.404564 4.82647659 19.9554175 1 16 4.82647659 12.0445825 4.05572809 6.59543596 9.47634877 5.64458247 12.0557281 0.783095739 17 3.2 21.9442719 0.783095739 24.5236512 5.64458247 29.9442719 6.59543596 29.1735234 12.0445825 33 16 29.1735234 19.9554175 29.9442719 25.404564 24.5236512 26.3554175 21.9442719 31.2169043"></polygon>
            <g id="icons8-checked" transform="translate(12.000000, 10.000000)" fill="#FFFFFF" fill-rule="nonzero">
                <polygon id="Shape" points="10.0049342 1.32072368 3.47368421 7.85197368 0.995065789 5.37335526 0.162828947 6.20559211 3.05756579 9.10032895 3.47368421 9.49835526 3.88980263 9.10032895 10.8371711 2.15296053"></polygon>
            </g>
        </g>
    </g>
</svg>