<?xml version="1.0" encoding="UTF-8"?>
<svg width="32px" height="32px" viewBox="0 0 32 32" version="1.1" xmlns="http://www.w3.org/2000/svg" xmlns:xlink="http://www.w3.org/1999/xlink">
    <!-- Generator: sketchtool 52 (66869) - http://www.bohemiancoding.com/sketch -->
    <title>C6CEED0C-3E3B-4401-8DEF-DF30C4DC841D</title>
    <desc>Created with sketchtool.</desc>
    <g id="Page-2" stroke="none" stroke-width="1" fill="none" fill-rule="evenodd">
        <g id="ui" transform="translate(-168.000000, -646.000000)" fill="#EE5F1F" fill-rule="nonzero">
            <g id="icons8-facebook_filled-copy" transform="translate(168.000000, 646.000000)">
                <path d="M28.1904762,0 L3.80952381,0 C1.70666667,0 0,1.70666667 0,3.80952381 L0,28.1904762 C0,30.2933333 1.70666667,32 3.80952381,32 L28.1904762,32 C30.2933333,32 32,30.2933333 32,28.1904762 L32,3.80952381 C32,1.70666667 30.2933333,0 28.1904762,0 Z M25.1428571,11.4285714 L23.6190476,11.4285714 C21.9885714,11.4285714 21.3333333,11.8095238 21.3333333,12.952381 L21.3333333,15.2380952 L25.1428571,15.2380952 L24.3809524,19.047619 L21.3333333,19.047619 L21.3333333,30.4761905 L17.5238095,30.4761905 L17.5238095,19.047619 L14.4761905,19.047619 L14.4761905,15.2380952 L17.5238095,15.2380952 L17.5238095,12.952381 C17.5238095,9.9047619 19.047619,7.61904762 22.0952381,7.61904762 C24.3047619,7.61904762 25.1428571,8.38095238 25.1428571,8.38095238 L25.1428571,11.4285714 Z" id="Shape"></path>
            </g>
        </g>
    </g>
</svg>