<?xml version="1.0" encoding="UTF-8"?>
<svg width="58px" height="58px" viewBox="0 0 58 58" version="1.1" xmlns="http://www.w3.org/2000/svg" xmlns:xlink="http://www.w3.org/1999/xlink">
    <!-- Generator: sketchtool 52 (66869) - http://www.bohemiancoding.com/sketch -->
    <title>E9A43D54-4CAA-4B20-8A97-7EB5404D39ED</title>
    <desc>Created with sketchtool.</desc>
    <g id="Page-2" stroke="none" stroke-width="1" fill="none" fill-rule="evenodd">
        <g id="index-1440" transform="translate(-1033.000000, -3573.000000)" fill-rule="nonzero">
            <g id="Group-20" transform="translate(1033.000000, 3573.000000)">
                <g id="icons8-discount">
                    <path d="M53.84,34.36 C53.2913041,35.0386774 53.055193,35.9177371 53.19,36.78 L54.14,42.78 C54.2269489,43.2621541 53.9517742,43.7363012 53.49,43.9 L47.83,46.07 C47.0129483,46.3815612 46.3661593,47.0247165 46.05,47.84 L43.88,53.5 C43.7163012,53.9617742 43.2421541,54.2369489 42.76,54.15 L36.76,53.2 C35.8977371,53.065193 35.0186774,53.3013041 34.34,53.85 L29.63,57.66 C29.2574779,57.9744232 28.7125221,57.9744232 28.34,57.66 L23.63,53.85 C22.9513226,53.3013041 22.0722629,53.065193 21.21,53.2 L15.21,54.15 C14.7278459,54.2369489 14.2536988,53.9617742 14.09,53.5 L11.92,47.84 C11.6084388,47.0229483 10.9652835,46.3761593 10.15,46.06 L4.51,43.89 C4.04822576,43.7263012 3.77305112,43.2521541 3.86,42.77 L4.81,36.77 C4.944807,35.9077371 4.70869593,35.0286774 4.16,34.35 L0.35,29.65 C0.0355767597,29.2774779 0.0355767597,28.7325221 0.35,28.36 L4.16,23.65 C4.70869593,22.9713226 4.944807,22.0922629 4.81,21.23 L3.86,15.23 C3.77305112,14.7478459 4.04822576,14.2736988 4.51,14.11 L10.17,11.94 C10.9870517,11.6284388 11.6338407,10.9852835 11.95,10.17 L14.12,4.51 C14.2836988,4.04822576 14.7578459,3.77305112 15.24,3.86 L21.24,4.81 C22.1022629,4.944807 22.9813226,4.70869593 23.66,4.16 L28.37,0.35 C28.7425221,0.0355767597 29.2874779,0.0355767597 29.66,0.35 L34.37,4.16 C35.0486774,4.70869593 35.9277371,4.944807 36.79,4.81 L42.79,3.86 C43.2721541,3.77305112 43.7463012,4.04822576 43.91,4.51 L46.08,10.17 C46.3915612,10.9870517 47.0347165,11.6338407 47.85,11.95 L53.51,14.12 C53.9717742,14.2836988 54.2469489,14.7578459 54.16,15.24 L53.21,21.24 C53.075193,22.1022629 53.3113041,22.9813226 53.86,23.66 L57.67,28.37 C57.9844232,28.7425221 57.9844232,29.2874779 57.67,29.66 L53.84,34.36 Z" id="Shape" fill="#F0EAE4"></path>
                    <path d="M29,46 C28.4477153,46 28,46.4477153 28,47 L28,49 C28,49.5522847 28.4477153,50 29,50 C29.5522847,50 30,49.5522847 30,49 L30,47 C30,46.4477153 29.5522847,46 29,46 Z" id="Shape" fill="#F6773E"></path>
                    <path d="M29,12 C29.5522847,12 30,11.5522847 30,11 L30,9 C30,8.44771525 29.5522847,8 29,8 C28.4477153,8 28,8.44771525 28,9 L28,11 C28,11.5522847 28.4477153,12 29,12 Z" id="Shape" fill="#F6773E"></path>
                    <path d="M49,28 L47,28 C46.4477153,28 46,28.4477153 46,29 C46,29.5522847 46.4477153,30 47,30 L49,30 C49.5522847,30 50,29.5522847 50,29 C50,28.4477153 49.5522847,28 49,28 Z" id="Shape" fill="#F6773E"></path>
                    <path d="M11,30 C11.5522847,30 12,29.5522847 12,29 C12,28.4477153 11.5522847,28 11,28 L9,28 C8.44771525,28 8,28.4477153 8,29 C8,29.5522847 8.44771525,30 9,30 L11,30 Z" id="Shape" fill="#F6773E"></path>
                    <path d="M15.56,41 L14.15,42.41 C13.8646238,42.6543899 13.7403181,43.0381184 13.8281899,43.403419 C13.9160617,43.7687195 14.2012805,44.0539383 14.566581,44.1418101 C14.9318816,44.2296819 15.3156101,44.1053762 15.56,43.82 L17,42.44 C17.397645,42.042355 17.397645,41.397645 17,41 C16.602355,40.602355 15.957645,40.602355 15.56,41 Z" id="Shape" fill="#F6773E"></path>
                    <path d="M41.73,17.27 C41.995803,17.2715368 42.2512812,17.1671865 42.44,16.98 L43.85,15.57 C44.1897768,15.1732397 44.1669323,14.5818058 43.7975632,14.2124368 C43.4281942,13.8430677 42.8367603,13.8202232 42.44,14.16 L41,15.56 C40.7115401,15.8460905 40.6248381,16.2782668 40.780629,16.6534815 C40.93642,17.0286962 41.3037349,17.2723626 41.71,17.27 L41.73,17.27 Z" id="Shape" fill="#F6773E"></path>
                    <path d="M42.44,41 C42.1827688,40.7427688 41.8078461,40.6423085 41.4564617,40.7364617 C41.1050773,40.8306149 40.8306149,41.1050773 40.7364617,41.4564617 C40.6423085,41.8078461 40.7427688,42.1827688 41,42.44 L42.41,43.85 C42.8067603,44.1897768 43.3981942,44.1669323 43.7675632,43.7975632 C44.1369323,43.4281942 44.1597768,42.8367603 43.82,42.44 L42.44,41 Z" id="Shape" fill="#F6773E"></path>
                    <path d="M15.56,14.15 C15.1632397,13.8102232 14.5718058,13.8330677 14.2024368,14.2024368 C13.8330677,14.5718058 13.8102232,15.1632397 14.15,15.56 L15.56,17 C15.957645,17.397645 16.602355,17.397645 17,17 C17.397645,16.602355 17.397645,15.957645 17,15.56 L15.56,14.15 Z" id="Shape" fill="#F6773E"></path>
                    <path d="M34.62,46.13 C34.462037,45.6147264 33.9241502,45.3173231 33.4037647,45.4575305 C32.8833792,45.597738 32.5677128,46.1251143 32.69,46.65 L33.21,48.58 C33.29292,48.9359124 33.5633831,49.2182491 33.9154069,49.3163747 C34.2674307,49.4145003 34.644947,49.3127861 34.9000238,49.0510893 C35.1551006,48.7893926 35.2471109,48.4093947 35.14,48.06 L34.62,46.13 Z" id="Shape" fill="#F6773E"></path>
                    <path d="M23.38,11.87 C23.537963,12.3852736 24.0758498,12.6826769 24.5962353,12.5424695 C25.1166208,12.402262 25.4322872,11.8748857 25.31,11.35 L24.79,9.42 C24.70708,9.06408756 24.4366169,8.78175093 24.0845931,8.6836253 C23.7325693,8.58549967 23.355053,8.68721389 23.0999762,8.94891067 C22.8448994,9.21060745 22.7528891,9.59060533 22.86,9.94 L23.38,11.87 Z" id="Shape" fill="#F6773E"></path>
                    <path d="M45.42,24.6 C45.5617217,25.1322768 46.1071955,25.4497247 46.64,25.31 L48.57,24.79 C48.9259124,24.70708 49.2082491,24.4366169 49.3063747,24.0845931 C49.4045003,23.7325693 49.3027861,23.355053 49.0410893,23.0999762 C48.7793926,22.8448994 48.3993947,22.7528891 48.05,22.86 L46.12,23.38 C45.5917681,23.5261291 45.2795844,24.0702208 45.42,24.6 Z" id="Shape" fill="#F6773E"></path>
                    <path d="M12.58,33.4 C12.4382783,32.8677232 11.8928045,32.5502753 11.36,32.69 L9.43,33.21 C9.07408756,33.29292 8.79175093,33.5633831 8.6936253,33.9154069 C8.59549967,34.2674307 8.69721389,34.644947 8.95891067,34.9000238 C9.22060745,35.1551006 9.60060533,35.2471109 9.95,35.14 L11.88,34.62 C12.4082319,34.4738709 12.7204156,33.9297792 12.58,33.4 Z" id="Shape" fill="#F6773E"></path>
                    <path d="M20.5,43.72 C20.2694763,43.586455 19.9951937,43.5504163 19.7379963,43.6198783 C19.480799,43.6893404 19.2619512,43.8585603 19.13,44.09 L18.13,45.82 C17.8815983,46.2948504 18.0516763,46.8811063 18.5156398,47.1492932 C18.9796032,47.4174802 19.572504,47.2722526 19.86,46.82 L20.86,45.09 C20.9943739,44.8606913 21.0319353,44.5873232 20.9643886,44.3302702 C20.8968418,44.0732172 20.7297442,43.853628 20.5,43.72 Z" id="Shape" fill="#F6773E"></path>
                    <path d="M39.5,10.81 C39.2694763,10.676455 38.9951937,10.6404163 38.7379963,10.7098783 C38.480799,10.7793404 38.2619512,10.9485603 38.13,11.18 L37.13,12.91 C36.8815983,13.3848504 37.0516763,13.9711063 37.5156398,14.2392932 C37.9796032,14.5074802 38.572504,14.3622526 38.86,13.91 L39.86,12.18 C39.9943739,11.9506913 40.0319353,11.6773232 39.9643886,11.4202702 C39.8968418,11.1632172 39.7297442,10.943628 39.5,10.81 Z" id="Shape" fill="#F6773E"></path>
                    <path d="M46.82,38.13 L45.09,37.13 C44.7800109,36.9329406 44.386938,36.9216923 44.0661872,37.1007021 C43.7454363,37.279712 43.5486447,37.6201615 43.5536161,37.9874501 C43.5585875,38.3547387 43.7645216,38.6897371 44.09,38.86 L45.82,39.86 C46.2948504,40.1084017 46.8811063,39.9383237 47.1492932,39.4743602 C47.4174802,39.0103968 47.2722526,38.417496 46.82,38.13 Z" id="Shape" fill="#F6773E"></path>
                    <path d="M11.18,19.87 L12.91,20.87 C13.3848504,21.1184017 13.9711063,20.9483237 14.2392932,20.4843602 C14.5074802,20.0203968 14.3622526,19.427496 13.91,19.14 L12.18,18.14 C11.8700109,17.9429406 11.476938,17.9316923 11.1561872,18.1107021 C10.8354363,18.289712 10.6386447,18.6301615 10.6436161,18.9974501 C10.6485875,19.3647387 10.8545216,19.6997371 11.18,19.87 Z" id="Shape" fill="#F6773E"></path>
                    <path d="M38.87,44.09 C38.582504,43.6377474 37.9896032,43.4925198 37.5256398,43.7607068 C37.0616763,44.0288937 36.8915983,44.6151496 37.14,45.09 L38.14,46.82 C38.3102629,47.1454784 38.6452613,47.3514125 39.0125499,47.3563839 C39.3798385,47.3613553 39.720288,47.1645637 39.8992979,46.8438128 C40.0783077,46.523062 40.0670594,46.1299891 39.87,45.82 L38.87,44.09 Z" id="Shape" fill="#F6773E"></path>
                    <path d="M19.13,13.91 C19.417496,14.3622526 20.0103968,14.5074802 20.4743602,14.2392932 C20.9383237,13.9711063 21.1084017,13.3848504 20.86,12.91 L19.86,11.18 C19.572504,10.7277474 18.9796032,10.5825198 18.5156398,10.8507068 C18.0516763,11.1188937 17.8815983,11.7051496 18.13,12.18 L19.13,13.91 Z" id="Shape" fill="#F6773E"></path>
                    <path d="M43.72,20.5 C43.8519512,20.7314397 44.070799,20.9006596 44.3279963,20.9701217 C44.5851937,21.0395837 44.8594763,21.003545 45.09,20.87 L46.82,19.87 C47.1454784,19.6997371 47.3514125,19.3647387 47.3563839,18.9974501 C47.3613553,18.6301615 47.1645637,18.289712 46.8438128,18.1107021 C46.523062,17.9316923 46.1299891,17.9429406 45.82,18.14 L44.09,19.14 C43.6138636,19.4146085 43.4486117,20.0220208 43.72,20.5 Z" id="Shape" fill="#F6773E"></path>
                    <path d="M14.28,37.5 C14.1480488,37.2685603 13.929201,37.0993404 13.6720037,37.0298783 C13.4148063,36.9604163 13.1405237,36.996455 12.91,37.13 L11.18,38.13 C10.7277474,38.417496 10.5825198,39.0103968 10.8507068,39.4743602 C11.1188937,39.9383237 11.7051496,40.1084017 12.18,39.86 L13.91,38.86 C14.3861364,38.5853915 14.5513883,37.9779792 14.28,37.5 Z" id="Shape" fill="#F6773E"></path>
                    <path d="M24.6,45.42 C24.0671955,45.2802753 23.5217217,45.5977232 23.38,46.13 L22.86,48.06 C22.7528891,48.4093947 22.8448994,48.7893926 23.0999762,49.0510893 C23.355053,49.3127861 23.7325693,49.4145003 24.0845931,49.3163747 C24.4366169,49.2182491 24.70708,48.9359124 24.79,48.58 L25.31,46.65 C25.3801406,46.3926994 25.3445987,46.118041 25.2112738,45.8870696 C25.0779489,45.6560982 24.8578875,45.487951 24.6,45.42 Z" id="Shape" fill="#F6773E"></path>
                    <path d="M33.4,12.58 C33.9328045,12.7197247 34.4782783,12.4022768 34.62,11.87 L35.14,9.94 C35.2471109,9.59060533 35.1551006,9.21060745 34.9000238,8.94891067 C34.644947,8.68721389 34.2674307,8.58549967 33.9154069,8.6836253 C33.5633831,8.78175093 33.29292,9.06408756 33.21,9.42 L32.69,11.35 C32.6198594,11.6073006 32.6554013,11.881959 32.7887262,12.1129304 C32.9220511,12.3439018 33.1421125,12.512049 33.4,12.58 Z" id="Shape" fill="#F6773E"></path>
                    <path d="M48.58,33.21 L46.65,32.69 C46.1251143,32.5677128 45.597738,32.8833792 45.4575305,33.4037647 C45.3173231,33.9241502 45.6147264,34.462037 46.13,34.62 L48.06,35.14 C48.4093947,35.2471109 48.7893926,35.1551006 49.0510893,34.9000238 C49.3127861,34.644947 49.4145003,34.2674307 49.3163747,33.9154069 C49.2182491,33.5633831 48.9359124,33.29292 48.58,33.21 Z" id="Shape" fill="#F6773E"></path>
                    <path d="M9.42,24.79 L11.35,25.31 C11.8748857,25.4322872 12.402262,25.1166208 12.5424695,24.5962353 C12.6826769,24.0758498 12.3852736,23.537963 11.87,23.38 L9.94,22.86 C9.59060533,22.7528891 9.21060745,22.8448994 8.94891067,23.0999762 C8.68721389,23.355053 8.58549967,23.7325693 8.6836253,24.0845931 C8.78175093,24.4366169 9.06408756,24.70708 9.42,24.79 Z" id="Shape" fill="#F6773E"></path>
                    <path d="M26,25 L26,22 C26,20.3431458 24.6568542,19 23,19 L22,19 C20.3431458,19 19,20.3431458 19,22 L19,25 C19,26.6568542 20.3431458,28 22,28 L23,28 C24.6568542,28 26,26.6568542 26,25 Z M21,25 L21,22 C21,21.4477153 21.4477153,21 22,21 L23,21 C23.5522847,21 24,21.4477153 24,22 L24,25 C24,25.5522847 23.5522847,26 23,26 L22,26 C21.4477153,26 21,25.5522847 21,25 Z" id="Shape" fill="#644733"></path>
                    <path d="M38,36 L38,33 C38,31.3431458 36.6568542,30 35,30 L34,30 C32.3431458,30 31,31.3431458 31,33 L31,36 C31,37.6568542 32.3431458,39 34,39 L35,39 C36.6568542,39 38,37.6568542 38,36 Z M36,36 C36,36.5522847 35.5522847,37 35,37 L34,37 C33.4477153,37 33,36.5522847 33,36 L33,33 C33,32.4477153 33.4477153,32 34,32 L35,32 C35.5522847,32 36,32.4477153 36,33 L36,36 Z" id="Shape" fill="#644733"></path>
                    <path d="M23.89,40.46 L34.89,18.46 C35.1312874,17.9733898 34.9400374,17.3831503 34.4592197,17.1305173 C33.978402,16.8778843 33.3838397,17.0552393 33.12,17.53 L22.12,39.53 C21.8787126,40.0166102 22.0699626,40.6068497 22.5507803,40.8594827 C23.031598,41.1121157 23.6261603,40.9347607 23.89,40.46 Z" id="Shape" fill="#644733"></path>
                </g>
            </g>
        </g>
    </g>
</svg>