<?xml version="1.0" encoding="UTF-8"?>
<svg width="62px" height="56px" viewBox="0 0 62 56" version="1.1" xmlns="http://www.w3.org/2000/svg" xmlns:xlink="http://www.w3.org/1999/xlink">
    <!-- Generator: sketchtool 52 (66869) - http://www.bohemiancoding.com/sketch -->
    <title>9E72C882-8443-4921-939C-E28F4DF5F447</title>
    <desc>Created with sketchtool.</desc>
    <g id="Page-2" stroke="none" stroke-width="1" fill="none" fill-rule="evenodd">
        <g id="index-1440" transform="translate(-463.000000, -3573.000000)" fill-rule="nonzero">
            <g id="Group-19" transform="translate(463.000000, 3573.000000)">
                <g id="icons8-idea">
                    <path d="M48.52,19.596774 C48.6000813,9.68708059 40.8299831,1.58712442 31.165,1.50501553 C21.5000169,1.42290664 13.6000813,9.389738 13.52,19.2994314 C13.47,25.5948917 17.22,31.30592 22,36.0018823 L22,37.8987229 C22,40.1637957 23.790861,42 26,42 L36,42 C38.209139,42 40,40.1637957 40,37.8987229 L40,35.9403631 C44.75,31.3674392 48.47,25.7589428 48.52,19.596774 Z" id="Shape" fill="#F0EAE4"></path>
                    <rect id="Rectangle-path" fill="#F0EAE4" transform="translate(31.000000, 54.500000) rotate(180.000000) translate(-31.000000, -54.500000) " x="29" y="53" width="4" height="3"></rect>
                    <path d="M29,41 L33,41 C36.3137085,41 39,43.6862915 39,47 L39,53 L23,53 L23,47 C23,43.6862915 25.6862915,41 29,41 Z" id="Shape" fill="#F0EAE4" transform="translate(31.000000, 47.000000) rotate(180.000000) translate(-31.000000, -47.000000) "></path>
                    <path d="M8,19 C8,18.4477153 7.55228475,18 7,18 L1,18 C0.44771525,18 6.76353751e-17,18.4477153 0,19 C-6.76353751e-17,19.5522847 0.44771525,20 1,20 L7,20 C7.55228475,20 8,19.5522847 8,19 Z" id="Shape" fill="#F6773E"></path>
                    <path d="M61,18 L55,18 C54.4477153,18 54,18.4477153 54,19 C54,19.5522847 54.4477153,20 55,20 L61,20 C61.5522847,20 62,19.5522847 62,19 C62,18.4477153 61.5522847,18 61,18 Z" id="Shape" fill="#F6773E"></path>
                    <path d="M8.37,27.06 L4.66,28.56 C4.30743559,28.678357 4.04967612,28.9825908 3.9908418,29.3498081 C3.93200748,29.7170254 4.08181828,30.0865587 4.37975911,30.3091375 C4.67769995,30.5317162 5.07454833,30.5705684 5.41,30.41 L9.12,28.91 C9.596707,28.6818178 9.81355003,28.1220876 9.61498831,27.632302 C9.41642659,27.1425165 8.87102574,26.8918041 8.37,27.06 Z" id="Shape" fill="#F6773E"></path>
                    <path d="M53.25,11 C53.3766534,11.0003081 53.5022124,10.9765537 53.62,10.93 L57.33,9.43 C57.806707,9.20181781 58.02355,8.64208761 57.8249883,8.15230204 C57.6264266,7.66251646 57.0810257,7.41180405 56.58,7.58 L52.87,9.08 C52.4347908,9.26530766 52.1889476,9.73020255 52.2807844,10.1942198 C52.3726211,10.658237 52.7770148,10.9944392 53.25,11 Z" id="Shape" fill="#F6773E"></path>
                    <path d="M9.12,9.08 L5.41,7.58 C5.07454833,7.41943157 4.67769995,7.45828377 4.37975911,7.68086252 C4.08181828,7.90344128 3.93200748,8.27297457 3.9908418,8.6401919 C4.04967612,9.00740923 4.30743559,9.311643 4.66,9.43 L8.37,10.93 C8.87102574,11.0981959 9.41642659,10.8474835 9.61498831,10.357698 C9.81355003,9.86791239 9.596707,9.30818219 9.12,9.08 Z" id="Shape" fill="#F6773E"></path>
                    <path d="M57.34,28.56 L53.63,27.06 C53.2945483,26.8994316 52.8977,26.9382838 52.5997591,27.1608625 C52.3018183,27.3834413 52.1520075,27.7529746 52.2108418,28.1201919 C52.2696761,28.4874092 52.5274356,28.791643 52.88,28.91 L56.59,30.41 C57.0910257,30.5781959 57.6364266,30.3274835 57.8349883,29.837698 C58.03355,29.3479124 57.816707,28.7881822 57.34,28.56 Z" id="Shape" fill="#F6773E"></path>
                    <path d="M30.29,26.29 C30.1028135,26.4787188 29.9984632,26.734197 30,27 L30,33 C30,33.5522847 30.4477153,34 31,34 C31.5522847,34 32,33.5522847 32,33 L32,27.41 L35.71,23.7 C36.0497768,23.3032397 36.0269323,22.7118058 35.6575632,22.3424368 C35.2881942,21.9730677 34.6967603,21.9502232 34.3,22.29 L30.29,26.29 Z" id="Shape" fill="#F6773E"></path>
                    <path d="M31,0 C20.5065898,-8.8817842e-16 12,8.50658975 12,19 C12,24 14.78,27.69 17.47,31.28 C19.62,34.16 21.65,36.89 22,40 L22,47 C22.0040745,50.4765822 24.5590733,53.4233474 28,53.92 L28,55 C28,56.1045695 28.8954305,57 30,57 L32,57 C33.1045695,57 34,56.1045695 34,55 L34,53.92 C37.4409267,53.4233474 39.9959255,50.4765822 40,47 L40,40.9 C40,37.4 42.22,34.43 44.57,31.28 C47.24,27.69 50,24 50,19 C50,8.50658975 41.4934102,2.66453526e-15 31,0 Z M24,42 L38,42 L38,43.12 L24,44.87 L24,42 Z M32,55 L30,55 L30,54 L32,54 L32,55 Z M33,52 L29,52 C26.2385763,52 24,49.7614237 24,47 L24,46.88 L38,45.13 L38,47 C38,47 38,47.08 38,47.12 L27.83,48.39 C27.2777153,48.4231371 26.8568629,48.8977153 26.89,49.45 C26.9231371,50.0022847 27.3977153,50.4231371 27.95,50.39 L28.08,50.39 L37.47,49.22 C36.6278789,50.9194762 34.8966741,51.9961539 33,52 Z M43,30.09 C40.76,33.09 38.44,36.22 38.08,39.94 L32,39.94 L32,37 C32,36.4477153 31.5522847,36 31,36 C30.4477153,36 30,36.4477153 30,37 L30,39.94 L24,39.94 C23.64,36.21 21.31,33.1 19,30.08 C16.58,26.75 14,23.31 14,19 C14.0000001,9.61115935 21.6111594,2.00000025 31,2.00000025 C40.3888406,2.00000025 47.9999999,9.61115935 48,19 C48,23.31 45.44,26.76 43,30.09 Z" id="Shape" fill="#F0EAE4"></path>
                    <path d="M22,40 L22,47 C22.0040745,50.4765822 24.5590733,53.4233474 28,53.92 L34,53.92 C37.4409267,53.4233474 39.9959255,50.4765822 40,47 L40,40 L22,40 Z M24,42 L38,42 L38,43.12 L24,44.87 L24,42 Z M33,52 L29,52 C26.2385763,52 24,49.7614237 24,47 L24,46.88 L38,45.13 L38,47 C38,47 38,47.08 38,47.12 L27.83,48.39 C27.2777153,48.4231371 26.8568629,48.8977153 26.89,49.45 C26.9231371,50.0022847 27.3977153,50.4231371 27.95,50.39 L28.08,50.39 L37.47,49.22 C36.6278789,50.9194762 34.8966741,51.9961539 33,52 Z" id="Shape" fill="#644733"></path>
                    <path d="M29.71,24.29 L27.71,22.29 C27.3132397,21.9502232 26.7218058,21.9730677 26.3524368,22.3424368 C25.9830677,22.7118058 25.9602232,23.3032397 26.3,23.7 L28.3,25.7 C28.6967603,26.0397768 29.2881942,26.0169323 29.6575632,25.6475632 C30.0269323,25.2781942 30.0497768,24.6867603 29.71,24.29 Z" id="Shape" fill="#F6773E"></path>
                    <path d="M38.23,7 C37.7686011,6.80981341 37.2376117,6.98892318 36.9856805,7.41972544 C36.7337494,7.8505277 36.838008,8.40112758 37.23,8.71 C38.0595378,9.21234506 38.8251219,9.81339575 39.51,10.5 C39.9088047,10.7828035 40.4536224,10.7357904 40.7980855,10.3888491 C41.1425485,10.0419079 41.185655,9.49676726 40.9,9.1 C40.0985363,8.29422179 39.2019381,7.58903223 38.23,7 Z" id="Shape" fill="#F6773E"></path>
                    <path d="M33.18,7.2 C33.7322847,7.29941125 34.2605887,6.93228475 34.36,6.38 C34.4594113,5.82771525 34.0922847,5.29941125 33.54,5.2 C29.9867111,4.54797926 26.3190642,5.30086865 23.31,7.3 C22.840558,7.60375661 22.7062434,8.23055796 23.01,8.7 C23.3137566,9.16944204 23.940558,9.30375661 24.41,9 C26.9916757,7.29113173 30.1339228,6.64620073 33.18,7.2 Z" id="Shape" fill="#F6773E"></path>
                </g>
            </g>
        </g>
    </g>
</svg>