<?xml version="1.0" encoding="UTF-8"?>
<svg width="44px" height="56px" viewBox="0 0 44 56" version="1.1" xmlns="http://www.w3.org/2000/svg" xmlns:xlink="http://www.w3.org/1999/xlink">
    <!-- Generator: sketchtool 52 (66869) - http://www.bohemiancoding.com/sketch -->
    <title>6296614C-38FD-43F6-AF0A-7A2239DCD2E0</title>
    <desc>Created with sketchtool.</desc>
    <g id="Page-2" stroke="none" stroke-width="1" fill="none" fill-rule="evenodd">
        <g id="index-1440" transform="translate(-756.000000, -3573.000000)" fill-rule="nonzero">
            <g id="Group-18" transform="translate(756.000000, 3573.000000)">
                <g id="Group-17">
                    <g id="Group-16">
                        <g id="icons8-list">
                            <rect id="Rectangle-path" fill="#F0EAE4" x="0" y="6.4" width="44" height="49.28" rx="2"></rect>
                            <path d="M20.6583592,1.5527864 C21.5029417,1.13049517 22.4970583,1.13049517 23.3416408,1.5527864 L30.3099381,5.03693505 C31.1904433,5.47718766 31.7989257,6.32141185 31.9381458,7.29595255 L32.3438291,10.1357359 C32.3639048,10.2762658 32.3739806,10.4180434 32.3739806,10.56 C32.3739806,12.2168542 31.0308349,13.56 29.3739806,13.56 L14.6260194,13.56 C14.4840628,13.56 14.3422852,13.5499242 14.2017553,13.5298485 C12.5615533,13.2955339 11.4218563,11.775938 11.6561709,10.1357359 L12.0618542,7.29595255 C12.2010743,6.32141185 12.8095567,5.47718766 13.6900619,5.03693505 L20.6583592,1.5527864 Z" id="Shape" stroke="#F6773E" stroke-width="2" fill="#F0EAE4"></path>
                            <g id="Group-15" transform="translate(10.000000, 19.000000)" fill="#644733">
                                <path d="M1.2,0.08 C0.71398942,0.08 0.32,0.47398942 0.32,0.96 L0.32,2.72 C0.32,3.20601058 0.71398942,3.6 1.2,3.6 C1.68601058,3.6 2.08,3.20601058 2.08,2.72 L2.08,0.96 C2.08,0.47398942 1.68601058,0.08 1.2,0.08 Z" id="Shape"></path>
                                <path d="M5.6,3.6 C6.08601058,3.6 6.48,3.20601058 6.48,2.72 L6.48,0.96 C6.48,0.47398942 6.08601058,0.08 5.6,0.08 C5.11398942,0.08 4.72,0.47398942 4.72,0.96 L4.72,2.72 C4.72,3.20601058 5.11398942,3.6 5.6,3.6 Z" id="Shape"></path>
                                <path d="M10,3.6 C10.4860106,3.6 10.88,3.20601058 10.88,2.72 L10.88,0.96 C10.88,0.47398942 10.4860106,0.08 10,0.08 C9.51398942,0.08 9.12,0.47398942 9.12,0.96 L9.12,2.72 C9.12,3.20601058 9.51398942,3.6 10,3.6 Z" id="Shape"></path>
                                <path d="M14.4,3.6 C14.8860106,3.6 15.28,3.20601058 15.28,2.72 L15.28,0.96 C15.28,0.47398942 14.8860106,0.08 14.4,0.08 C13.9139894,0.08 13.52,0.47398942 13.52,0.96 L13.52,2.72 C13.52,3.20601058 13.9139894,3.6 14.4,3.6 Z" id="Shape"></path>
                                <path d="M18.8,3.6 C19.2860106,3.6 19.68,3.20601058 19.68,2.72 L19.68,0.96 C19.68,0.47398942 19.2860106,0.08 18.8,0.08 C18.3139894,0.08 17.92,0.47398942 17.92,0.96 L17.92,2.72 C17.92,3.20601058 18.3139894,3.6 18.8,3.6 Z" id="Shape"></path>
                                <path d="M23.2,3.6 C23.6860106,3.6 24.08,3.20601058 24.08,2.72 L24.08,0.96 C24.08,0.47398942 23.6860106,0.08 23.2,0.08 C22.7139894,0.08 22.32,0.47398942 22.32,0.96 L22.32,2.72 C22.32,3.20601058 22.7139894,3.6 23.2,3.6 Z" id="Shape"></path>
                            </g>
                            <circle id="Oval" fill="#F6773E" cx="22" cy="7.28" r="1.76"></circle>
                            <path d="M17.6,25.88 C17.1139894,25.88 16.72,26.2739894 16.72,26.76 C16.72,27.2460106 17.1139894,27.64 17.6,27.64 L33.44,27.64 C33.9260106,27.64 34.32,27.2460106 34.32,26.76 C34.32,26.2739894 33.9260106,25.88 33.44,25.88 L17.6,25.88 Z" id="Shape" fill="#644733"></path>
                            <path d="M17.6,32.92 L29.92,32.92 C30.4060106,32.92 30.8,32.5260106 30.8,32.04 C30.8,31.5539894 30.4060106,31.16 29.92,31.16 L17.6,31.16 C17.1139894,31.16 16.72,31.5539894 16.72,32.04 C16.72,32.5260106 17.1139894,32.92 17.6,32.92 Z" id="Shape" fill="#644733"></path>
                            <path d="M22.88,41.72 L17.6,41.72 C17.1139894,41.72 16.72,42.1139894 16.72,42.6 C16.72,43.0860106 17.1139894,43.48 17.6,43.48 L22.88,43.48 C23.3660106,43.48 23.76,43.0860106 23.76,42.6 C23.76,42.1139894 23.3660106,41.72 22.88,41.72 Z" id="Shape" fill="#644733"></path>
                            <path d="M31.68,36.44 L17.6,36.44 C17.1139894,36.44 16.72,36.8339894 16.72,37.32 C16.72,37.8060106 17.1139894,38.2 17.6,38.2 L31.68,38.2 C32.1660106,38.2 32.56,37.8060106 32.56,37.32 C32.56,36.8339894 32.1660106,36.44 31.68,36.44 Z" id="Shape" fill="#644733"></path>
                            <path d="M12.5752,25.2552 L11.44,26.3992 L11.1848,26.144 C10.835651,25.8449964 10.3151891,25.8650996 9.99014437,26.1901444 C9.6650996,26.5151891 9.64499642,27.035651 9.944,27.3848 L10.824,28.2648 C11.167233,28.6059968 11.721567,28.6059968 12.0648,28.2648 L13.8248,26.5048 C14.1238036,26.155651 14.1037004,25.6351891 13.7786556,25.3101444 C13.4536109,24.9850996 12.933149,24.9649964 12.584,25.264 L12.5752,25.2552 Z" id="Shape" fill="#644733"></path>
                            <path d="M12.5752,30.5352 L11.44,31.6792 L11.1848,31.424 C10.835651,31.1249964 10.3151891,31.1450996 9.99014437,31.4701444 C9.6650996,31.7951891 9.64499642,32.315651 9.944,32.6648 L10.824,33.5448 C11.167233,33.8859968 11.721567,33.8859968 12.0648,33.5448 L13.8248,31.7848 C14.1238036,31.435651 14.1037004,30.9151891 13.7786556,30.5901444 C13.4536109,30.2650996 12.933149,30.2449964 12.584,30.544 L12.5752,30.5352 Z" id="Shape" fill="#644733"></path>
                            <path d="M12.5752,35.8152 L11.44,36.9592 L11.1848,36.704 C10.835651,36.4049964 10.3151891,36.4250996 9.99014437,36.7501444 C9.6650996,37.0751891 9.64499642,37.595651 9.944,37.9448 L10.824,38.8248 C11.167233,39.1659968 11.721567,39.1659968 12.0648,38.8248 L13.8248,37.0648 C14.1238036,36.715651 14.1037004,36.1951891 13.7786556,35.8701444 C13.4536109,35.5450996 12.933149,35.5249964 12.584,35.824 L12.5752,35.8152 Z" id="Shape" fill="#644733"></path>
                            <path d="M12.5752,41.0952 L11.44,42.2392 L11.1848,41.984 C10.835651,41.6849964 10.3151891,41.7050996 9.99014437,42.0301444 C9.6650996,42.3551891 9.64499642,42.875651 9.944,43.2248 L10.824,44.1048 C11.167233,44.4459968 11.721567,44.4459968 12.0648,44.1048 L13.8248,42.3448 C14.1238036,41.995651 14.1037004,41.4751891 13.7786556,41.1501444 C13.4536109,40.8250996 12.933149,40.8049964 12.584,41.104 L12.5752,41.0952 Z" id="Shape" fill="#644733"></path>
                        </g>
                    </g>
                </g>
            </g>
        </g>
    </g>
</svg>