<?xml version="1.0" encoding="UTF-8"?>
<svg width="32px" height="32px" viewBox="0 0 32 32" version="1.1" xmlns="http://www.w3.org/2000/svg" xmlns:xlink="http://www.w3.org/1999/xlink">
    <!-- Generator: sketchtool 52 (66869) - http://www.bohemiancoding.com/sketch -->
    <title>E7346BE7-E13D-4507-82FB-20A3D7EE01EF</title>
    <desc>Created with sketchtool.</desc>
    <g id="Page-2" stroke="none" stroke-width="1" fill="none" fill-rule="evenodd">
        <g id="ui" transform="translate(-123.000000, -579.000000)" fill-rule="nonzero">
            <g id="Group-22" transform="translate(123.000000, 578.000000)">
                <path d="M3.80952381,1 C1.70666667,1 0,2.70666667 0,4.80952381 L0,29.1904762 C0,31.2933333 1.70666667,33 3.80952381,33 L28.1904762,33 C30.2933333,33 32,31.2933333 32,29.1904762 L32,4.80952381 C32,2.70666667 30.2933333,1 28.1904762,1 L3.80952381,1 Z" id="Shape-Copy" fill="#F0EAE4"></path>
                <g id="icons8-instagram_new_filled" transform="translate(7.000000, 0.000000)" fill="#FFFFFF">
                    <path d="M18.2727273,6.18181818 C19.1227273,6.18181818 19.8181818,6.87727273 19.8181818,7.72727273 C19.8181818,8.57727273 19.1227273,9.27272727 18.2727273,9.27272727 C17.4227273,9.27272727 16.7272727,8.57727273 16.7272727,7.72727273 C16.7272727,6.87727273 17.4227273,6.18181818 18.2727273,6.18181818 Z M9,8.5 C13.6904545,8.5 17.5,12.3095455 17.5,17 C17.5,21.6904545 13.6904545,25.5 9,25.5 C4.30954545,25.5 0.5,21.6904545 0.5,17 C0.5,12.3095455 4.30954545,8.5 9,8.5 Z M9,10.0454545 C5.16727273,10.0454545 2.04545455,13.1672727 2.04545455,17 C2.04545455,20.8327273 5.16727273,23.9545455 9,23.9545455 C12.8327273,23.9545455 15.9545455,20.8327273 15.9545455,17 C15.9545455,13.1672727 12.8327273,10.0454545 9,10.0454545 Z" id="Shape"></path>
                </g>
            </g>
        </g>
    </g>
</svg>