<?xml version="1.0" encoding="UTF-8"?>
<svg width="32px" height="32px" viewBox="0 0 32 32" version="1.1" xmlns="http://www.w3.org/2000/svg" xmlns:xlink="http://www.w3.org/1999/xlink">
    <!-- Generator: sketchtool 52 (66869) - http://www.bohemiancoding.com/sketch -->
    <title>21FEE3F6-3FB5-40C3-880A-F362D47A7A29</title>
    <desc>Created with sketchtool.</desc>
    <g id="Page-2" stroke="none" stroke-width="1" fill="none" fill-rule="evenodd">
        <g id="ui" transform="translate(-213.000000, -579.000000)" fill="#F0EAE4" fill-rule="nonzero">
            <g id="icons8-odnoklassniki_filled" transform="translate(213.000000, 579.000000)">
                <path d="M3.80952381,0 C1.70666667,0 0,1.70666667 0,3.80952381 L0,28.1904762 C0,30.2933333 1.70666667,32 3.80952381,32 L28.1904762,32 C30.2933333,32 32,30.2933333 32,28.1904762 L32,3.80952381 C32,1.70666667 30.2933333,0 28.1904762,0 L3.80952381,0 Z M16,3.80952381 C19.367619,3.80952381 22.0952381,6.53714286 22.0952381,9.9047619 C22.0952381,13.272381 19.367619,16 16,16 C12.632381,16 9.9047619,13.272381 9.9047619,9.9047619 C9.9047619,6.53714286 12.632381,3.80952381 16,3.80952381 Z M16,6.85714286 C14.3168465,6.85714286 12.952381,8.22160838 12.952381,9.9047619 C12.952381,11.5879154 14.3168465,12.952381 16,12.952381 C17.6831535,12.952381 19.047619,11.5879154 19.047619,9.9047619 C19.047619,8.22160838 17.6831535,6.85714286 16,6.85714286 Z M22.0952381,17.1354164 C22.5752381,17.1354164 23.0480952,17.3635116 23.3452381,17.7901783 C23.8252381,18.4758926 23.657619,19.4292259 22.9642857,19.9092259 C21.8214286,20.7092259 20.5638095,21.2875596 19.2380952,21.6532739 L23.1696427,25.5922621 C23.7715474,26.1865478 23.7715474,27.1467855 23.1696427,27.7410712 C22.8724998,28.0382141 22.4838095,28.1904762 22.0952381,28.1904762 C21.7066667,28.1904762 21.3179764,28.0382141 21.0208335,27.7410712 L16,22.7276785 L10.9791665,27.7410712 C10.6820236,28.0382141 10.2933333,28.1904762 9.9047619,28.1904762 C9.51619048,28.1904762 9.12750019,28.0382141 8.83035733,27.7410712 C8.22845257,27.1467855 8.22845257,26.1865478 8.83035733,25.5922621 L12.7619048,21.6532739 C11.4438095,21.2875596 10.1860122,20.7166667 9.04315505,19.9166667 C8.35744076,19.4366667 8.18220267,18.4909524 8.66220267,17.797619 C8.95934552,17.3709524 9.43202362,17.1428571 9.91964267,17.1428571 C10.2167855,17.1428571 10.5220236,17.2338095 10.7886903,17.4166667 C12.3201189,18.4833333 14.1257143,19.047619 16,19.047619 C17.8819048,19.047619 19.6871429,18.4835116 21.2261905,17.4092259 C21.4852381,17.2263688 21.7904762,17.1354164 22.0952381,17.1354164 Z" id="Shape"></path>
            </g>
        </g>
    </g>
</svg>