<?xml version="1.0" encoding="UTF-8"?>
<svg width="20px" height="20px" viewBox="0 0 20 20" version="1.1" xmlns="http://www.w3.org/2000/svg" xmlns:xlink="http://www.w3.org/1999/xlink">
    <!-- Generator: sketchtool 52 (66869) - http://www.bohemiancoding.com/sketch -->
    <title>00D740ED-79DB-45B5-9B93-E4938ACB62EA</title>
    <desc>Created with sketchtool.</desc>
    <g id="Page-2" stroke="none" stroke-width="1" fill="none" fill-rule="evenodd">
        <g id="Mobile" transform="translate(-259.000000, -6351.000000)" fill="#F0EAE4">
            <g id="icons8-plus" transform="translate(259.000000, 6351.000000)">
                <path d="M9,1 L9,9 L1,9 C0.44771525,9 -6.76353751e-17,9.44771525 0,10 L0,10 C6.76353751e-17,10.5522847 0.44771525,11 1,11 L9,11 L9,19 C9,19.5522847 9.44771525,20 10,20 L10,20 C10.5522847,20 11,19.5522847 11,19 L11,11 L19,11 C19.5522847,11 20,10.5522847 20,10 L20,10 C20,9.44771525 19.5522847,9 19,9 L11,9 L11,1 C11,0.44771525 10.5522847,-1.01453063e-16 10,0 L10,0 C9.44771525,1.01453063e-16 9,0.44771525 9,1 Z" id="Path"></path>
            </g>
        </g>
    </g>
</svg>