<?xml version="1.0" encoding="UTF-8"?>
<svg width="16px" height="16px" viewBox="0 0 16 16" version="1.1" xmlns="http://www.w3.org/2000/svg" xmlns:xlink="http://www.w3.org/1999/xlink">
    <!-- Generator: sketchtool 52 (66869) - http://www.bohemiancoding.com/sketch -->
    <title>8DFA640E-E949-4D07-9B87-D9592C2EF4A5</title>
    <desc>Created with sketchtool.</desc>
    <g id="Page-2" stroke="none" stroke-width="1" fill="none" fill-rule="evenodd">
        <g id="dropdown-320" transform="translate(-261.000000, -676.000000)" fill="#644733">
            <g id="Group-2" transform="translate(0.000000, 492.000000)">
                <g id="icons8-plus" transform="translate(254.000000, 177.000000)">
                    <path d="M14,6 L14,14 L6,14 C5.44771525,14 5,14.4477153 5,15 L5,15 C5,15.5522847 5.44771525,16 6,16 L14,16 L14,24 C14,24.5522847 14.4477153,25 15,25 L15,25 C15.5522847,25 16,24.5522847 16,24 L16,16 L24,16 C24.5522847,16 25,15.5522847 25,15 L25,15 C25,14.4477153 24.5522847,14 24,14 L16,14 L16,6 C16,5.44771525 15.5522847,5 15,5 L15,5 C14.4477153,5 14,5.44771525 14,6 Z" id="Path" transform="translate(15.000000, 15.000000) rotate(45.000000) translate(-15.000000, -15.000000) "></path>
                </g>
            </g>
        </g>
    </g>
</svg>