<?xml version="1.0" encoding="UTF-8"?>
<svg width="29px" height="29px" viewBox="0 0 29 29" version="1.1" xmlns="http://www.w3.org/2000/svg" xmlns:xlink="http://www.w3.org/1999/xlink">
    <!-- Generator: sketchtool 52 (66869) - http://www.bohemiancoding.com/sketch -->
    <title>AA3DF82D-A704-49FF-99D3-3D8E42698C19</title>
    <desc>Created with sketchtool.</desc>
    <g id="Page-2" stroke="none" stroke-width="1" fill="none" fill-rule="evenodd">
        <g id="index-1440" transform="translate(-1245.000000, -2523.000000)" fill="#F6773E" fill-rule="nonzero" stroke="#F6773E" stroke-width="0.8">
            <g id="Group-10" transform="translate(735.000000, 2492.000000)">
                <g id="icons8-replay_filled" transform="translate(511.000000, 32.000000)">
                    <path d="M13.5,27 C6.05635714,27 0,20.9442857 0,13.5 C0,13.1451429 0.287357143,12.8571429 0.642857143,12.8571429 C0.998357143,12.8571429 1.28571429,13.1451429 1.28571429,13.5 C1.28571429,20.2352143 6.76478571,25.7142857 13.5,25.7142857 C20.2352143,25.7142857 25.7142857,20.2352143 25.7142857,13.5 C25.7142857,6.76478571 20.2352143,1.28571429 13.5,1.28571429 C9.79842857,1.28571429 6.34628571,2.95007143 4.03585714,5.78571429 L7.71428571,5.78571429 C8.06978571,5.78571429 8.35714286,6.07371429 8.35714286,6.42857143 C8.35714286,6.78342857 8.06978571,7.07142857 7.71428571,7.07142857 L1.92857143,7.07142857 L1.92857143,1.28571429 C1.92857143,0.930857143 2.21592857,0.642857143 2.57142857,0.642857143 C2.92692857,0.642857143 3.21428571,0.930857143 3.21428571,1.28571429 L3.21428571,4.75585714 C5.76514286,1.75242857 9.50271429,0 13.5,0 C20.9436429,0 27,6.05571429 27,13.5 C27,20.9442857 20.9436429,27 13.5,27 Z" id="Shape"></path>
                </g>
            </g>
        </g>
    </g>
</svg>