<?xml version="1.0" encoding="UTF-8"?>
<svg width="29px" height="29px" viewBox="0 0 29 29" version="1.1" xmlns="http://www.w3.org/2000/svg" xmlns:xlink="http://www.w3.org/1999/xlink">
    <!-- Generator: sketchtool 52 (66869) - http://www.bohemiancoding.com/sketch -->
    <title>420A37D4-989E-45DD-B7F1-04441CEB43C1</title>
    <desc>Created with sketchtool.</desc>
    <g id="Page-2" stroke="none" stroke-width="1" fill="none" fill-rule="evenodd">
        <g id="ui" transform="translate(-515.000000, -648.000000)" fill="#3E2311" fill-rule="nonzero">
            <g id="icons8-search" transform="translate(515.000000, 648.000000)">
                <path d="M11.328125,0 C5.08172619,0 0,5.08172619 0,11.328125 C0,17.5745238 5.08172619,22.65625 11.328125,22.65625 C13.8273926,22.65625 16.137268,21.842041 18.0117188,20.466736 C18.0117188,20.466736 19.2702027,21.6986695 19.3303832,21.7199098 C19.3303832,21.7305297 19.3286133,21.7393801 19.3286133,21.75 C19.3286133,22.3553469 19.5640258,22.925293 19.9923707,23.3518676 L24.6793824,28.0388793 C25.1218871,28.4813844 25.7006836,28.7008668 26.28125,28.7008668 C26.8618164,28.7008668 27.4423828,28.4813844 27.8831176,28.0388793 L28.0388793,27.8813477 C28.4672242,27.4547731 28.7026367,26.8865969 28.7026367,26.28125 C28.7026367,25.6759035 28.4672242,25.105957 28.0388793,24.6793824 L23.3518676,19.9923707 C22.9022828,19.5427855 22.3110961,19.3250735 21.7216797,19.3339235 C21.6986695,19.2719727 20.466736,18.0117188 20.466736,18.0117188 C21.842041,16.137268 22.65625,13.8273926 22.65625,11.328125 C22.65625,5.08172619 17.5745238,0 11.328125,0 Z M11.328125,0.90625 C17.0753785,0.90625 21.75,5.58087147 21.75,11.328125 C21.75,17.0753785 17.0753785,21.75 11.328125,21.75 C5.58087147,21.75 0.90625,17.0753785 0.90625,11.328125 C0.90625,5.58087147 5.58087147,0.90625 11.328125,0.90625 Z M11.328125,2.71875 C9.02886952,2.71875 6.86590588,3.61438011 5.23925781,5.23925781 C1.88330078,8.59698475 1.88330078,14.0592653 5.23925781,17.4152223 C6.86590588,19.0418703 9.02886952,19.9375 11.328125,19.9375 C13.6273805,19.9375 15.7903441,19.0418703 17.4169922,17.4169922 C20.7729492,14.0592653 20.7729492,8.59698475 17.4169922,5.23925781 C15.7903441,3.61438011 13.6273805,2.71875 11.328125,2.71875 Z M11.328125,3.625 C13.3848879,3.625 15.3195192,4.42681873 16.774475,5.88177502 C19.7781985,8.88372814 19.7781985,13.7725219 16.774475,16.774475 C15.3195192,18.2294313 13.3848879,19.03125 11.328125,19.03125 C9.27136253,19.03125 7.33673084,18.2294313 5.88177502,16.774475 C2.87805198,13.7725219 2.87805198,8.88549805 5.88177502,5.88177502 C7.33673084,4.42681873 9.27136253,3.625 11.328125,3.625 Z M11.2413942,4.984375 C9.59350586,5.00384533 8.02172852,5.66229259 6.84112538,6.84112538 C6.66412342,7.01989769 6.66412342,7.30487072 6.84112538,7.48364258 C6.92962658,7.57037342 7.04644764,7.61639416 7.16326916,7.61639416 C7.27832031,7.61639416 7.39514183,7.57037342 7.48364258,7.48364258 C8.63769531,6.32781994 10.2324828,5.75610352 11.8626711,5.91717541 C12.1122438,5.93841564 12.3334961,5.75964378 12.3582766,5.51007069 C12.3830566,5.26049805 12.2007445,5.03924572 11.9511719,5.01446522 C11.7139895,4.99145508 11.4768066,4.98083519 11.2413942,4.984375 Z M14.4362793,5.83398438 C14.2628176,5.80920433 14.0805055,5.88885509 13.9831543,6.04992698 C13.853943,6.26409923 13.9229739,6.54199219 14.138916,6.6712035 C14.5106203,6.897766 14.8593141,7.17034923 15.1726074,7.48364258 C15.2611086,7.57214378 15.3761598,7.61639416 15.4929808,7.61639416 C15.6098024,7.61639416 15.7248535,7.57214378 15.8151246,7.48364258 C15.9903567,7.30664063 15.9903567,7.01989769 15.8151246,6.84289573 C15.4487305,6.47827148 15.0416262,6.15966797 14.6062012,5.89593517 C14.5531008,5.86407459 14.4946898,5.84283436 14.4362793,5.83398438 Z M4.984375,10.875 C4.73480236,10.875 4.53125,11.0767825 4.53125,11.328125 C4.53125,11.579468 4.73480236,11.78125 4.984375,11.78125 L5.890625,11.78125 C6.14019764,11.78125 6.34375,11.579468 6.34375,11.328125 C6.34375,11.0767825 6.14019764,10.875 5.890625,10.875 L4.984375,10.875 Z M16.765625,10.875 C16.5160524,10.875 16.3125,11.0767825 16.3125,11.328125 C16.3125,11.579468 16.5160524,11.78125 16.765625,11.78125 L17.671875,11.78125 C17.9214476,11.78125 18.125,11.579468 18.125,11.328125 C18.125,11.0767825 17.9214476,10.875 17.671875,10.875 L16.765625,10.875 Z M6.29418945,12.9122926 C6.23577892,12.9105227 6.17382813,12.9211426 6.1171875,12.9441527 L5.27642811,13.2839965 C5.04455589,13.3778078 4.93304455,13.6415406 5.02685547,13.8734133 C5.09765625,14.0504153 5.26757813,14.1583863 5.44634998,14.1583863 C5.50299061,14.1583863 5.56140159,14.147766 5.61627186,14.1247559 L6.45703125,13.7849121 C6.68890392,13.6911012 6.80041527,13.4273684 6.70660389,13.1954957 C6.63580311,13.0220336 6.47119141,12.9140625 6.29418945,12.9122926 Z M16.3337402,12.9990234 C16.1567383,12.9990234 15.9885863,13.1034547 15.9160156,13.2751465 C15.8186644,13.5070192 15.9248656,13.7725219 16.1567383,13.869873 L16.9904176,14.223877 C17.0470582,14.2486575 17.1072387,14.2592773 17.1674195,14.2592773 C17.3444215,14.2592773 17.5108031,14.1566164 17.5851442,13.9831543 C17.6824953,13.753052 17.5745238,13.4875488 17.3444215,13.3901976 L16.5107422,13.0361937 C16.4523317,13.0114137 16.3921508,12.9990234 16.3337402,12.9990234 Z M7.48364258,14.7194824 C7.36682152,14.7194824 7.25176991,14.7637328 7.16326916,14.852234 L6.52252186,15.4929808 C6.34551991,15.6699828 6.34551991,15.9567262 6.52252186,16.1337281 C6.61102306,16.2222289 6.72607422,16.2664797 6.84289573,16.2664797 C6.9597168,16.2664797 7.07476795,16.2222289 7.16326916,16.1337281 L7.804016,15.4929808 C7.98101795,15.3159789 7.98101795,15.029236 7.804016,14.852234 C7.71551525,14.7637328 7.59869373,14.7194824 7.48364258,14.7194824 Z M15.1726074,14.7194824 C15.0575563,14.7194824 14.9407347,14.7637328 14.852234,14.852234 C14.675232,15.029236 14.675232,15.3159789 14.852234,15.4929808 L15.4929808,16.1337281 C15.581482,16.2222289 15.6965332,16.2664797 15.8133547,16.2664797 C15.9301758,16.2664797 16.0452269,16.2222289 16.1337281,16.1337281 C16.3107301,15.9567262 16.3107301,15.6699828 16.1337281,15.4929808 L15.4929808,14.852234 C15.4044801,14.7637328 15.2876586,14.7194824 15.1726074,14.7194824 Z M9.20410156,15.8806152 C9.02709961,15.8806152 8.85894764,15.9832766 8.78637695,16.1567383 L8.43237305,16.9904176 C8.33502186,17.2205199 8.44299339,17.487793 8.6730957,17.5851442 C8.73150623,17.6099242 8.78991722,17.6205445 8.85009766,17.6205445 C9.0253297,17.6205445 9.19348167,17.5161133 9.26782227,17.3444215 L9.62182617,16.5107422 C9.71917736,16.2806399 9.61120628,16.0133668 9.38110352,15.9160156 C9.32269298,15.8912356 9.26251209,15.8806152 9.20410156,15.8806152 Z M13.3724977,15.9160156 C13.3140871,15.9160156 13.2521363,15.926636 13.1954957,15.9496461 C12.9618531,16.043457 12.8503418,16.3071898 12.9441527,16.5390625 L13.2839965,17.3798219 C13.3547973,17.5568238 13.5247191,17.663025 13.7052613,17.663025 C13.761902,17.663025 13.8185426,17.6524047 13.8751832,17.6293945 C14.1070559,17.5355836 14.2185668,17.2718508 14.1247559,17.0399781 L13.7849121,16.1992188 C13.7141113,16.0257571 13.5494996,15.9195559 13.3724977,15.9160156 Z M11.328125,16.3125 C11.0785524,16.3125 10.875,16.5142825 10.875,16.765625 L10.875,17.671875 C10.875,17.923218 11.0785524,18.125 11.328125,18.125 C11.5776976,18.125 11.78125,17.923218 11.78125,17.671875 L11.78125,16.765625 C11.78125,16.5142825 11.5776976,16.3125 11.328125,16.3125 Z M19.8967894,18.7250367 L20.7463988,19.576416 C20.5322266,19.6826172 20.3269043,19.8153688 20.1481324,19.9941406 L19.9923707,20.1481324 C19.8153688,20.3251344 19.6826172,20.5286868 19.5746461,20.7446289 L18.7250367,19.8967894 C19.1445312,19.5357055 19.5357055,19.1445312 19.8967894,18.7250367 Z M21.75,20.2348633 C22.0986937,20.2348633 22.4473879,20.3676149 22.7128906,20.6331176 L27.3999023,25.3201293 C27.6565551,25.5767825 27.7963867,25.9183961 27.7963867,26.28125 C27.7963867,26.6441039 27.6547852,26.985718 27.3981324,27.2423707 L27.2423707,27.3981324 C26.7113649,27.9273684 25.8511351,27.9273684 25.3201293,27.3981324 L20.6331176,22.7111207 C20.3764648,22.454468 20.2348633,22.1128539 20.2348633,21.75 C20.2348633,21.3871461 20.3764648,21.0455325 20.6331176,20.7888793 L20.7888793,20.6331176 C21.0543824,20.3676149 21.4030762,20.2348633 21.75,20.2348633 Z" id="Shape"></path>
            </g>
        </g>
    </g>
</svg>