<?xml version="1.0" encoding="UTF-8"?>
<svg width="242px" height="78px" viewBox="0 0 242 78" version="1.1" xmlns="http://www.w3.org/2000/svg" xmlns:xlink="http://www.w3.org/1999/xlink">
    <!-- Generator: sketchtool 52 (66869) - http://www.bohemiancoding.com/sketch -->
    <title>0380B17C-C36A-40D9-B83F-46C201AE500A</title>
    <desc>Created with sketchtool.</desc>
    <g id="Page-2" stroke="none" stroke-width="1" fill="none" fill-rule="evenodd">
        <g id="index-1440" transform="translate(-1062.000000, -2126.000000)" fill="#F0EAE4">
            <g id="Group-11-Copy-3" transform="translate(1061.000000, 2118.000000)">
                <g id="Group-27" transform="translate(0.000000, 8.000000)">
                    <polygon id="Path" transform="translate(122.000000, 38.796480) rotate(-4.000000) translate(-122.000000, -38.796480) " points="2.94660108 13.8764418 240.266752 8.29648038 239.09602 11.8198856 240.296206 15.5167206 238.796851 18.4019694 240.905764 21.9172426 240.011507 25.9810755 240.925133 30.1312056 239.769308 34.0744865 241.195273 37.3585401 239.831767 41.0027162 241.884827 44.7834117 240.192161 48.126888 242 51.7529882 239.714309 55.0888596 241.242839 57.7447272 238.868159 60.770626 240.266752 63.716519 2.94660108 69.2964804 5.14127761 65.7637214 2 62.753363 5.35289809 57.7639002 2.753873 55.0399547 5.4833871 52.1223125 2.87332043 49.5886968 6.25894151 45.730622 2.753873 42.1031975 6.49203634 37.7838796 3.69817152 33.320007 6.49558666 30.2563963 3.60215091 26.5954677 6.49558666 23.7705336 3.59582998 20.3512308 5.69195053 16.9237133"></polygon>
                </g>
            </g>
        </g>
    </g>
</svg>