<?xml version="1.0" encoding="UTF-8"?>
<svg width="242px" height="79px" viewBox="0 0 242 79" version="1.1" xmlns="http://www.w3.org/2000/svg" xmlns:xlink="http://www.w3.org/1999/xlink">
    <!-- Generator: sketchtool 52 (66869) - http://www.bohemiancoding.com/sketch -->
    <title>6AD5A1EA-1AC5-4B0E-A768-C17A01172892</title>
    <desc>Created with sketchtool.</desc>
    <g id="Page-2" stroke="none" stroke-width="1" fill="none" fill-rule="evenodd">
        <g id="card_1440" transform="translate(-992.000000, -420.000000)" fill="#F6773E">
            <g id="Group-10" transform="translate(685.000000, 340.000000)">
                <g id="Group-12" transform="translate(306.000000, 72.000000)">
                    <g id="Group-31" transform="translate(0.000000, 8.000000)">
                        <polygon id="Path" transform="translate(122.000000, 39.446316) rotate(-4.000000) translate(-122.000000, -39.446316) " points="2.94660108 14.5262779 240.266752 8.94631645 239.09602 12.4697217 240.296206 16.1665566 238.796851 19.0518054 240.905764 22.5670787 240.011507 26.6309115 240.925133 30.7810417 239.769308 34.7243226 241.195273 38.0083762 239.831767 41.6525523 241.884827 45.4332477 240.192161 48.7767241 242 52.4028242 239.714309 55.7386957 241.242839 58.3945633 238.868159 61.420462 240.266752 64.366355 2.94660108 69.9463164 5.14127761 66.4135575 2 63.403199 5.35289809 58.4137362 2.753873 55.6897907 5.4833871 52.7721486 2.87332043 50.2385329 6.25894151 46.380458 2.753873 42.7530335 6.49203634 38.4337157 3.69817152 33.9698431 6.49558666 30.9062324 3.60215091 27.2453037 6.49558666 24.4203697 3.59582998 21.0010669 5.69195053 17.5735494"></polygon>
                    </g>
                </g>
            </g>
        </g>
    </g>
</svg>