<?xml version="1.0" encoding="UTF-8"?>
<svg width="301px" height="85px" viewBox="0 0 301 85" version="1.1" xmlns="http://www.w3.org/2000/svg" xmlns:xlink="http://www.w3.org/1999/xlink">
    <!-- Generator: sketchtool 52 (66869) - http://www.bohemiancoding.com/sketch -->
    <title>6865DF6C-6FD1-4B2F-9E06-26D5C4E9654C</title>
    <desc>Created with sketchtool.</desc>
    <g id="Page-2" stroke="none" stroke-width="1" fill="none" fill-rule="evenodd">
        <g id="index-1440" transform="translate(-263.000000, -1156.000000)" fill="#F0EAE4">
            <g id="Group-11-Copy" transform="translate(262.000000, 1155.000000)">
                <g id="Group-3">
                    <g id="Group-25" transform="translate(0.000000, 1.000000)">
                        <polygon id="Rectangle-6" transform="translate(151.653509, 42.455791) rotate(-4.000000) translate(-151.653509, -42.455791) " points="3.17481174 18.8879209 299.345559 10.6036234 298.174827 14.1270286 299.375013 17.8238636 297.875658 20.7091124 299.984571 24.2243856 299.090314 28.2882185 300.00394 32.4383486 298.848115 36.3816295 300.27408 39.6656831 298.910574 43.3098592 300.963634 47.0905547 299.270968 50.434031 301.078807 54.0601312 298.793116 57.3960026 300.321647 60.0518702 297.946966 63.077769 299.345559 66.023662 3.17481174 74.3079595 5.36948827 70.7752006 2.22821066 67.7648421 5.58110875 62.7753793 2.98208366 60.0514338 5.71159776 57.1337917 3.10153109 54.600176 6.48715217 50.7421011 2.98208366 47.1146766 6.72024701 42.7953588 3.92638218 38.3314862 6.72379732 35.2678754 3.83036157 31.6069468 6.72379732 28.7820128 3.82404064 25.3627099 5.92016119 21.9351925"></polygon>
                    </g>
                </g>
            </g>
        </g>
    </g>
</svg>