<?xml version="1.0" encoding="UTF-8"?>
<svg width="32px" height="32px" viewBox="0 0 32 32" version="1.1" xmlns="http://www.w3.org/2000/svg" xmlns:xlink="http://www.w3.org/1999/xlink">
    <!-- Generator: sketchtool 52 (66869) - http://www.bohemiancoding.com/sketch -->
    <title>5973440B-831E-41C2-8A11-7B3E0191B099</title>
    <desc>Created with sketchtool.</desc>
    <g id="Page-2" stroke="none" stroke-width="1" fill="none" fill-rule="evenodd">
        <g id="ui" transform="translate(-258.000000, -646.000000)" fill-rule="nonzero">
            <g id="Group-24-Copy" transform="translate(258.000000, 646.000000)">
                <g id="Group-23">
                    <path d="M3.80952381,0 C1.70666667,0 0,1.70666667 0,3.80952381 L0,28.1904762 C0,30.2933333 1.70666667,32 3.80952381,32 L28.1904762,32 C30.2933333,32 32,30.2933333 32,28.1904762 L32,3.80952381 C32,1.70666667 30.2933333,0 28.1904762,0 L3.80952381,0 Z" id="Shape" fill="#EE5F1F"></path>
                    <path d="M27.6033654,9.30048077 C26.8216648,9.64753627 25.983774,9.880559 25.1029148,9.98632823 C26.0019532,9.447566 26.6927583,8.59480158 27.0166766,7.58007823 C26.1771333,8.07752404 25.2433894,8.43945323 24.2534554,8.63446504 C23.4601862,7.78831119 22.3297775,7.261118 21.078726,7.261118 C18.6757815,7.261118 16.7273138,9.20793269 16.7273138,11.6108776 C16.7273138,11.9513221 16.7669773,12.2835035 16.8413462,12.6024642 C13.2253606,12.4206731 10.0208833,10.6887019 7.87409877,8.05603977 C7.49894842,8.70057081 7.28575742,9.447566 7.28575742,10.2441407 C7.28575742,11.7530048 8.05258435,13.0850363 9.2210035,13.8667369 C8.50706119,13.8435997 7.83608785,13.6469353 7.24939904,13.3213641 C7.24939904,13.3395433 7.24939904,13.3577225 7.24939904,13.3759017 C7.24939904,15.4846757 8.75,17.2414362 10.7381311,17.6430288 C10.3745494,17.7421875 9.98948338,17.7950721 9.59284877,17.7950721 C9.31189904,17.7950721 9.03921285,17.7686298 8.77313723,17.7157452 C9.32842569,19.4427583 10.9347959,20.703726 12.8369891,20.7384314 C11.3496093,21.9051984 9.47385838,22.599309 7.43449519,22.599309 C7.08248208,22.599309 6.73707954,22.5794773 6.39828724,22.5381613 C8.32196504,23.7743392 10.6092247,24.4932391 13.0667067,24.4932391 C21.0688103,24.4932391 25.4450122,17.8644834 25.4450122,12.1165865 C25.4450122,11.9281853 25.4400542,11.7381311 25.4334436,11.553035 C26.2829025,10.9399038 27.0199821,10.1730769 27.6033654,9.30048077 Z" id="Shape" fill="#FFFFFF"></path>
                </g>
            </g>
        </g>
    </g>
</svg>