<?xml version="1.0" encoding="UTF-8"?>
<svg width="32px" height="32px" viewBox="0 0 32 32" version="1.1" xmlns="http://www.w3.org/2000/svg" xmlns:xlink="http://www.w3.org/1999/xlink">
    <!-- Generator: sketchtool 52 (66869) - http://www.bohemiancoding.com/sketch -->
    <title>409B5BFD-9EDE-42D0-A796-7C17C39AC383</title>
    <desc>Created with sketchtool.</desc>
    <g id="Page-2" stroke="none" stroke-width="1" fill="none" fill-rule="evenodd">
        <g id="ui" transform="translate(-78.000000, -646.000000)" fill="#EE5F1F" fill-rule="nonzero">
            <g id="icons8-vk_com_filled-copy" transform="translate(78.000000, 646.000000)">
                <path d="M28.1904762,0 L3.80952381,0 C1.70666667,0 0,1.70666667 0,3.80952381 L0,28.1904762 C0,30.2933333 1.70666667,32 3.80952381,32 L28.1904762,32 C30.2933333,32 32,30.2933333 32,28.1904762 L32,3.80952381 C32,1.70666667 30.2933333,0 28.1904762,0 Z M25.6914286,22.0952381 L22.8495238,22.087619 C22.8495238,22.087619 22.7885714,22.0952381 22.6895238,22.0952381 C22.4609524,22.0952381 21.9885714,22.0342857 21.432381,21.6533333 C20.4342857,20.96 19.4819048,19.2380952 18.727619,19.2380952 C18.6742857,19.2380952 18.6285714,19.2457143 18.5828571,19.2609524 C17.927619,19.4666667 17.7295238,20.1219048 17.7295238,20.9219048 C17.7295238,21.2038095 17.5314286,21.3333333 16.9980952,21.3333333 L15.527619,21.3333333 C13.8819048,21.3333333 12.2895238,21.2952381 10.4990476,19.3371429 C7.86285714,16.4495238 5.39428571,11.3142857 5.39428571,11.3142857 C5.39428571,11.3142857 5.25714286,11.0171429 5.40190476,10.8419048 C5.53904762,10.6819048 5.85904762,10.6666667 5.98095238,10.6666667 C6.01142857,10.6666667 6.02666667,10.6666667 6.02666667,10.6666667 L9.07428571,10.6666667 C9.07428571,10.6666667 9.35619048,10.72 9.56190476,10.872381 C9.73714286,11.0019048 9.82857143,11.2380952 9.82857143,11.2380952 C9.82857143,11.2380952 10.3466667,12.2438095 10.9942857,13.3790476 C12.0838095,15.2533333 12.6704762,15.8780952 13.0895238,15.8780952 C13.1580952,15.8780952 13.2266667,15.8628571 13.2952381,15.8247619 C13.92,15.4819048 13.7371429,12.7085714 13.7371429,12.7085714 C13.7371429,12.7085714 13.7447619,11.7028571 13.4171429,11.2609524 C13.1657143,10.9104762 12.6857143,10.8114286 12.472381,10.7809524 C12.3047619,10.7580952 12.5790476,10.3619048 12.9447619,10.1790476 C13.4171429,9.95047619 14.2019048,9.9047619 15.1466667,9.9047619 L15.6038095,9.9047619 C16.4952381,9.92 16.5180952,10.0114286 16.8685714,10.0952381 C17.92,10.3466667 17.5619048,11.3295238 17.5619048,13.6838095 C17.5619048,14.4380952 17.4247619,15.4971429 17.9657143,15.8552381 C18.0038095,15.8780952 18.0571429,15.8933333 18.1257143,15.8933333 C18.4761905,15.8933333 19.2304762,15.4438095 20.4342857,13.4095238 C21.1047619,12.2514286 21.6228571,11.1009524 21.6228571,11.1009524 C21.6228571,11.1009524 21.7371429,10.8952381 21.912381,10.7885714 C22.08,10.6895238 22.08,10.6895238 22.3009524,10.6895238 L22.3238095,10.6895238 C22.567619,10.6895238 24.9904762,10.6666667 25.5238095,10.6666667 L25.5847619,10.6666667 C26.0952381,10.6666667 26.56,10.6742857 26.6438095,10.9866667 C26.7657143,11.4590476 26.2704762,12.3047619 24.967619,14.0571429 C22.8190476,16.9295238 22.5752381,16.7161905 24.3580952,18.3771429 C26.0647619,19.9619048 26.4152381,20.7314286 26.4761905,20.8304762 C27.1847619,22.0038095 25.6914286,22.0952381 25.6914286,22.0952381 Z" id="Shape"></path>
            </g>
        </g>
    </g>
</svg>